<svg height="512pt" viewBox="0 -10 512 511" width="512pt" xmlns="http://www.w3.org/2000/svg"><path d="m103.011719 221.105469c0-10.589844-8.617188-19.207031-19.207031-19.207031h-26.597657c-10.589843 0-19.207031 8.617187-19.207031 19.207031v26.597656c0 10.59375 8.617188 19.207031 19.207031 19.207031h26.597657c10.589843 0 19.207031-8.613281 19.207031-19.207031zm-15 26.597656c0 2.320313-1.886719 4.207031-4.207031 4.207031h-26.597657c-2.320312 0-4.207031-1.886718-4.207031-4.207031v-26.597656c0-2.320313 1.886719-4.207031 4.207031-4.207031h26.597657c2.320312 0 4.207031 1.886718 4.207031 4.207031zm0 0"/><path d="m195.757812 221.105469c0-10.589844-8.617187-19.207031-19.207031-19.207031h-26.597656c-10.589844 0-19.207031 8.617187-19.207031 19.207031v26.597656c0 10.59375 8.617187 19.207031 19.207031 19.207031h26.597656c10.589844 0 19.207031-8.613281 19.207031-19.207031zm-15 26.597656c0 2.320313-1.886718 4.207031-4.207031 4.207031h-26.597656c-2.320313 0-4.207031-1.886718-4.207031-4.207031v-26.597656c0-2.320313 1.886718-4.207031 4.207031-4.207031h26.597656c2.320313 0 4.207031 1.886718 4.207031 4.207031zm0 0"/><path d="m269.300781 201.898438h-26.601562c-10.589844 0-19.203125 8.617187-19.203125 19.207031v26.597656c0 10.59375 8.613281 19.207031 19.203125 19.207031h26.601562c10.589844 0 19.207031-8.613281 19.207031-19.207031v-26.597656c0-10.589844-8.617187-19.207031-19.207031-19.207031zm4.207031 45.804687c0 2.320313-1.890624 4.207031-4.207031 4.207031h-26.601562c-2.316407 0-4.203125-1.886718-4.203125-4.207031v-26.597656c0-2.320313 1.886718-4.207031 4.203125-4.207031h26.601562c2.316407 0 4.207031 1.886718 4.207031 4.207031zm0 0"/><path d="m335.449219 266.910156h26.597656c10.589844 0 19.207031-8.613281 19.207031-19.207031v-26.597656c0-10.589844-8.617187-19.207031-19.207031-19.207031h-26.597656c-10.589844 0-19.207031 8.617187-19.207031 19.207031v26.597656c0 10.59375 8.617187 19.207031 19.207031 19.207031zm-4.207031-45.804687c0-2.320313 1.886718-4.207031 4.207031-4.207031h26.597656c2.320313 0 4.207031 1.886718 4.207031 4.207031v26.597656c0 2.320313-1.886718 4.207031-4.207031 4.207031h-26.597656c-2.320313 0-4.207031-1.886718-4.207031-4.207031zm0 0"/><path d="m428.195312 266.910156h26.597657c10.589843 0 19.207031-8.613281 19.207031-19.207031v-26.597656c0-10.589844-8.617188-19.207031-19.207031-19.207031h-26.597657c-10.589843 0-19.207031 8.617187-19.207031 19.207031v26.597656c0 10.59375 8.617188 19.207031 19.207031 19.207031zm-4.207031-45.804687c0-2.320313 1.886719-4.207031 4.207031-4.207031h26.597657c2.320312 0 4.207031 1.886718 4.207031 4.207031v26.597656c0 2.320313-1.886719 4.207031-4.207031 4.207031h-26.597657c-2.320312 0-4.207031-1.886718-4.207031-4.207031zm0 0"/><path d="m103.011719 306.601562c0-10.589843-8.617188-19.207031-19.207031-19.207031h-26.597657c-10.589843 0-19.207031 8.617188-19.207031 19.207031v26.597657c0 10.589843 8.617188 19.207031 19.207031 19.207031h26.597657c10.589843 0 19.207031-8.617188 19.207031-19.207031zm-15 26.597657c0 2.320312-1.886719 4.207031-4.207031 4.207031h-26.597657c-2.320312 0-4.207031-1.886719-4.207031-4.207031v-26.597657c0-2.320312 1.886719-4.207031 4.207031-4.207031h26.597657c2.320312 0 4.207031 1.886719 4.207031 4.207031zm0 0"/><path d="m195.757812 306.601562c0-10.589843-8.617187-19.207031-19.207031-19.207031h-26.597656c-10.589844 0-19.207031 8.617188-19.207031 19.207031v26.597657c0 10.589843 8.617187 19.207031 19.207031 19.207031h26.597656c10.589844 0 19.207031-8.617188 19.207031-19.207031zm-15 26.597657c0 2.320312-1.886718 4.207031-4.207031 4.207031h-26.597656c-2.320313 0-4.207031-1.886719-4.207031-4.207031v-26.597657c0-2.320312 1.886718-4.207031 4.207031-4.207031h26.597656c2.320313 0 4.207031 1.886719 4.207031 4.207031zm0 0"/><path d="m269.300781 287.394531h-26.601562c-10.589844 0-19.203125 8.617188-19.203125 19.207031v26.597657c0 10.589843 8.613281 19.207031 19.203125 19.207031h26.601562c10.589844 0 19.207031-8.617188 19.207031-19.207031v-26.597657c0-10.589843-8.617187-19.207031-19.207031-19.207031zm4.207031 45.804688c0 2.320312-1.890624 4.207031-4.207031 4.207031h-26.601562c-2.316407 0-4.203125-1.886719-4.203125-4.207031v-26.597657c0-2.320312 1.886718-4.207031 4.203125-4.207031h26.601562c2.316407 0 4.207031 1.886719 4.207031 4.207031zm0 0"/><path d="m316.242188 333.199219c0 10.589843 8.617187 19.207031 19.207031 19.207031h26.597656c10.589844 0 19.207031-8.617188 19.207031-19.207031v-26.597657c0-10.589843-8.617187-19.207031-19.207031-19.207031h-26.597656c-10.589844 0-19.207031 8.617188-19.207031 19.207031zm15-26.597657c0-2.320312 1.886718-4.207031 4.207031-4.207031h26.597656c2.320313 0 4.207031 1.886719 4.207031 4.207031v26.597657c0 2.320312-1.886718 4.207031-4.207031 4.207031h-26.597656c-2.320313 0-4.207031-1.886719-4.207031-4.207031zm0 0"/><path d="m408.988281 333.199219c0 10.589843 8.617188 19.207031 19.207031 19.207031h26.597657c10.589843 0 19.207031-8.617188 19.207031-19.207031v-26.597657c0-10.589843-8.617188-19.207031-19.207031-19.207031h-26.597657c-10.589843 0-19.207031 8.617188-19.207031 19.207031zm15-26.597657c0-2.320312 1.886719-4.207031 4.207031-4.207031h26.597657c2.320312 0 4.207031 1.886719 4.207031 4.207031v26.597657c0 2.320312-1.886719 4.207031-4.207031 4.207031h-26.597657c-2.320312 0-4.207031-1.886719-4.207031-4.207031zm0 0"/><path d="m83.804688 372.890625h-26.597657c-10.589843 0-19.207031 8.613281-19.207031 19.203125v26.601562c0 10.589844 8.617188 19.203126 19.207031 19.203126h26.597657c10.589843 0 19.207031-8.613282 19.207031-19.203126v-26.601562c0-10.589844-8.617188-19.203125-19.207031-19.203125zm4.207031 45.804687c0 2.316407-1.886719 4.203126-4.207031 4.203126h-26.597657c-2.320312 0-4.207031-1.886719-4.207031-4.203126v-26.601562c0-2.316406 1.886719-4.203125 4.207031-4.203125h26.597657c2.320312 0 4.207031 1.886719 4.207031 4.203125zm0 0"/><path d="m176.550781 372.890625h-26.597656c-10.589844 0-19.207031 8.613281-19.207031 19.203125v26.601562c0 10.589844 8.617187 19.203126 19.207031 19.203126h26.597656c10.589844 0 19.207031-8.613282 19.207031-19.203126v-26.601562c0-10.589844-8.613281-19.203125-19.207031-19.203125zm4.207031 45.804687c0 2.316407-1.886718 4.203126-4.207031 4.203126h-26.597656c-2.320313 0-4.207031-1.886719-4.207031-4.203126v-26.601562c0-2.316406 1.886718-4.203125 4.207031-4.203125h26.597656c2.320313 0 4.207031 1.886719 4.207031 4.203125zm0 0"/><path d="m269.300781 372.890625h-26.601562c-10.589844 0-19.203125 8.613281-19.203125 19.203125v26.601562c0 10.589844 8.613281 19.203126 19.203125 19.203126h26.601562c10.589844 0 19.207031-8.613282 19.207031-19.203126v-26.601562c0-10.589844-8.617187-19.203125-19.207031-19.203125zm4.207031 45.804687c0 2.316407-1.890624 4.203126-4.207031 4.203126h-26.601562c-2.316407 0-4.203125-1.886719-4.203125-4.203126v-26.601562c0-2.316406 1.886718-4.203125 4.203125-4.203125h26.601562c2.316407 0 4.207031 1.886719 4.207031 4.203125zm0 0"/><path d="m316.242188 418.695312c0 10.589844 8.617187 19.203126 19.207031 19.203126h26.597656c10.589844 0 19.207031-8.613282 19.207031-19.203126v-26.601562c0-10.589844-8.617187-19.203125-19.207031-19.203125h-26.597656c-10.589844 0-19.207031 8.613281-19.207031 19.203125zm15-26.601562c0-2.316406 1.886718-4.203125 4.207031-4.203125h26.597656c2.320313 0 4.207031 1.886719 4.207031 4.203125v26.601562c0 2.316407-1.886718 4.203126-4.207031 4.203126h-26.597656c-2.320313 0-4.207031-1.886719-4.207031-4.203126zm0 0"/><path d="m408.988281 418.695312c0 10.589844 8.617188 19.203126 19.207031 19.203126h26.597657c10.589843 0 19.207031-8.613282 19.207031-19.203126v-26.601562c0-10.589844-8.617188-19.203125-19.207031-19.203125h-26.597657c-10.589843 0-19.207031 8.613281-19.207031 19.203125zm15-26.601562c0-2.316406 1.886719-4.203125 4.207031-4.203125h26.597657c2.320312 0 4.207031 1.886719 4.207031 4.203125v26.601562c0 2.316407-1.886719 4.203126-4.207031 4.203126h-26.597657c-2.320312 0-4.207031-1.886719-4.207031-4.203126zm0 0"/><path d="m480.300781 41.46875h-48.808593v-13.59375c0-15.09375-12.28125-27.375-27.375-27.375h-11.25c-15.09375 0-27.375 12.28125-27.375 27.375v13.59375h-76.492188v-13.59375c0-15.09375-12.28125-27.375-27.375-27.375h-11.25c-15.09375 0-27.375 12.28125-27.375 27.375v13.59375h-17.167969c-4.140625 0-7.5 3.359375-7.5 7.5 0 4.144531 3.359375 7.5 7.5 7.5h17.167969v13.597656c0 15.09375 12.28125 27.375 27.375 27.375h11.25c15.09375 0 27.375-12.28125 27.375-27.375v-13.597656h76.492188v13.597656c0 15.09375 12.28125 27.375 27.375 27.375h11.25c15.09375 0 27.375-12.28125 27.375-27.375v-13.597656h48.808593c9.207031 0 16.699219 7.492188 16.699219 16.699219v48.082031c0 16.5-13.421875 29.921875-29.921875 29.921875h-422.15625c-16.5 0-29.921875-13.421875-29.921875-29.921875v-48.078125c0-9.210937 7.492188-16.703125 16.699219-16.703125h48.808593v13.597656c0 15.09375 12.28125 27.375 27.375 27.375h11.25c15.09375 0 27.375-12.28125 27.375-27.375v-13.597656h24.328126c4.140624 0 7.5-3.355469 7.5-7.5s-3.359376-7.5-7.5-7.5h-24.328126v-13.59375c0-15.09375-12.28125-27.375-27.375-27.375h-11.25c-15.09375 0-27.375 12.28125-27.375 27.375v13.59375h-48.808593c-17.480469 0-31.699219 14.222656-31.699219 31.703125v387.429687c0 17.476563 14.21875 31.699219 31.699219 31.699219h242.632812c4.144531 0 7.5-3.359375 7.5-7.5 0-4.144531-3.355469-7.5-7.5-7.5h-242.632812c-9.207031 0-16.699219-7.492187-16.699219-16.699219v-305.882812c7.949219 7.117188 18.4375 11.453125 29.921875 11.453125h422.15625c11.484375 0 21.972656-4.335937 29.921875-11.453125v305.882812c0 9.207032-7.492188 16.699219-16.699219 16.699219h-170.96875c-4.140625 0-7.5 3.355469-7.5 7.5 0 4.140625 3.359375 7.5 7.5 7.5h170.96875c17.480469 0 31.699219-14.222656 31.699219-31.699219v-387.429687c0-17.480469-14.222656-31.703125-31.699219-31.703125zm-206.300781 28.597656c0 6.820313-5.554688 12.375-12.375 12.375h-11.25c-6.824219 0-12.375-5.554687-12.375-12.375v-42.191406c0-6.824219 5.550781-12.375 12.375-12.375h11.25c6.820312 0 12.375 5.550781 12.375 12.375zm142.492188 0c0 6.820313-5.550782 12.375-12.375 12.375h-11.25c-6.820313 0-12.375-5.554687-12.375-12.375v-42.191406c0-6.824219 5.554687-12.375 12.375-12.375h11.25c6.824218 0 12.375 5.550781 12.375 12.375zm-320.984376-42.191406c0-6.824219 5.550782-12.375 12.375-12.375h11.25c6.820313 0 12.375 5.550781 12.375 12.375v42.191406c0 6.820313-5.550781 12.375-12.375 12.375h-11.25c-6.824218 0-12.375-5.554687-12.375-12.375zm0 0"/></svg>