<svg height="512pt" viewBox="0 0 512 512" width="512pt" xmlns="http://www.w3.org/2000/svg"><path d="m504.5 362c4.144531 0 7.5-3.359375 7.5-7.5v-347c0-4.140625-3.355469-7.5-7.5-7.5h-497c-4.140625 0-7.5 3.359375-7.5 7.5v347c0 4.140625 3.359375 7.5 7.5 7.5h203.5v15h-203.5c-4.140625 0-7.5 3.359375-7.5 7.5s3.359375 7.5 7.5 7.5h203.5v112.5c0 4.140625 3.359375 7.5 7.5 7.5h75c4.144531 0 7.5-3.359375 7.5-7.5v-112.5h203.5c4.144531 0 7.5-3.359375 7.5-7.5s-3.355469-7.5-7.5-7.5h-203.5v-15zm-489.5-347h482v332h-482zm271 482h-60v-105h60zm0-120h-60v-15h60zm0 0"/><path d="m482 324.5v-287c0-4.140625-3.355469-7.5-7.5-7.5h-437c-4.140625 0-7.5 3.359375-7.5 7.5v287c0 4.140625 3.359375 7.5 7.5 7.5h437c4.144531 0 7.5-3.359375 7.5-7.5zm-437-7.5v-197h22.5c4.140625 0 7.5-3.359375 7.5-7.5s-3.359375-7.5-7.5-7.5h-22.5v-60h422v60h-369.5c-4.140625 0-7.5 3.359375-7.5 7.5s3.359375 7.5 7.5 7.5h369.5v197zm0 0"/></svg>