<svg height="512pt" viewBox="-65 0 512 512" width="512pt" xmlns="http://www.w3.org/2000/svg"><path d="m366.304688 50.273438h-83.410157-34.414062c-3.738281-28.605469-27.976563-50.273438-57.4375-50.273438-29.460938 0-53.699219 21.667969-57.4375 50.273438h-117.824219c-8.703125 0-15.78125 7.078124-15.78125 15.78125v430.164062c0 8.703125 7.078125 15.78125 15.78125 15.78125h350.523438c8.699218 0 15.78125-7.078125 15.78125-15.78125v-430.164062c0-8.703126-7.078126-15.78125-15.78125-15.78125zm.75 445.945312c0 .414062-.335938.753906-.75.753906h-350.523438c-.414062 0-.75-.339844-.75-.753906v-430.164062c0-.414063.335938-.75.75-.75h75.902344v13.894531h-39.9375c-7.8125 0-14.167969 6.355469-14.167969 14.167969v245.105468c0 4.148438 3.363281 7.515625 7.515625 7.515625 4.148438 0 7.515625-3.363281 7.515625-7.515625v-244.246094h39.078125v20.214844c0 8.5625 6.964844 15.527344 15.527344 15.527344h34.277344c4.152343 0 7.515624-3.363281 7.515624-7.515625 0-4.148437-3.363281-7.511719-7.515624-7.511719h-34.277344c-.273438 0-.5-.226562-.5-.503906v-49.132812h33.894531c4.101563 0 7.441406-3.285157 7.515625-7.382813l.019531-.757813c0-.085937 0-.175781 0-.261718l-.003906-.136719c.007813-.125.015625-.253906.019531-.378906.832032-23.191407 19.667969-41.359375 42.882813-41.359375 23.214843 0 42.050781 18.167968 42.882812 41.359375.003907.125.011719.25.019531.378906l-.003906.136719v.261718l.019532.757813c.074218 4.097656 3.417968 7.382813 7.515624 7.382813h33.894532v49.136718c0 .273438-.226563.5-.5.5h-97.855469c-4.152344 0-7.515625 3.363282-7.515625 7.515625 0 4.148438 3.363281 7.515625 7.515625 7.515625h97.855469c8.5625 0 15.527344-6.96875 15.527344-15.53125v-20.214844h39.078124v320.03125h-276.867187v-40.730468c0-4.148438-3.367187-7.515625-7.515625-7.515625-4.152344 0-7.515625 3.367187-7.515625 7.515625v41.585937c0 7.816407 6.355469 14.171875 14.167969 14.171875h278.59375c7.8125 0 14.167968-6.355468 14.167968-14.171875v-321.746093c0-7.8125-6.355468-14.167969-14.167968-14.167969h-39.9375v-13.894531h75.902344c.414062 0 .75.335937.75.75zm0 0"/><path d="m264.023438 171.558594h35.578124c4.148438 0 7.511719-3.367188 7.511719-7.515625 0-4.152344-3.363281-7.515625-7.511719-7.515625h-35.578124c-4.148438 0-7.515626 3.363281-7.515626 7.515625 0 4.148437 3.367188 7.515625 7.515626 7.515625zm0 0"/><path d="m161.699219 171.558594h67.132812c4.148438 0 7.515625-3.367188 7.515625-7.515625 0-4.152344-3.367187-7.515625-7.515625-7.515625h-67.132812c-4.148438 0-7.511719 3.363281-7.511719 7.515625 0 4.148437 3.363281 7.515625 7.511719 7.515625zm0 0"/><path d="m242.328125 201.269531h57.273437c4.148438 0 7.511719-3.363281 7.511719-7.511719 0-4.152343-3.363281-7.515624-7.511719-7.515624h-57.273437c-4.148437 0-7.515625 3.363281-7.515625 7.515624 0 4.148438 3.367188 7.511719 7.515625 7.511719zm0 0"/><path d="m161.699219 201.269531h45.839843c4.152344 0 7.515626-3.363281 7.515626-7.511719 0-4.152343-3.363282-7.515624-7.515626-7.515624h-45.839843c-4.148438 0-7.511719 3.363281-7.511719 7.515624 0 4.148438 3.363281 7.511719 7.511719 7.511719zm0 0"/><path d="m102.683594 206.613281c15.28125 0 27.714844-12.433593 27.714844-27.714843s-12.433594-27.710938-27.714844-27.710938-27.710938 12.429688-27.710938 27.710938c0 15.285156 12.429688 27.714843 27.710938 27.714843zm0-40.398437c6.996094 0 12.683594 5.691406 12.683594 12.683594 0 6.996093-5.6875 12.683593-12.683594 12.683593-6.992188 0-12.683594-5.6875-12.683594-12.683593 0-6.992188 5.691406-12.683594 12.683594-12.683594zm0 0"/><path d="m299.601562 246.414062h-35.578124c-4.148438 0-7.515626 3.363282-7.515626 7.515626 0 4.148437 3.367188 7.515624 7.515626 7.515624h35.578124c4.148438 0 7.511719-3.367187 7.511719-7.515624 0-4.152344-3.363281-7.515626-7.511719-7.515626zm0 0"/><path d="m161.699219 261.441406h67.132812c4.148438 0 7.515625-3.363281 7.515625-7.511718 0-4.152344-3.367187-7.515626-7.515625-7.515626h-67.132812c-4.148438 0-7.511719 3.363282-7.511719 7.515626 0 4.148437 3.363281 7.511718 7.511719 7.511718zm0 0"/><path d="m299.601562 276.128906h-57.273437c-4.148437 0-7.515625 3.363282-7.515625 7.515625 0 4.148438 3.363281 7.511719 7.515625 7.511719h57.273437c4.148438 0 7.511719-3.363281 7.511719-7.511719 0-4.152343-3.363281-7.515625-7.511719-7.515625zm0 0"/><path d="m161.699219 291.15625h45.839843c4.152344 0 7.515626-3.363281 7.515626-7.515625 0-4.148437-3.363282-7.511719-7.515626-7.511719h-45.839843c-4.148438 0-7.511719 3.363282-7.511719 7.511719 0 4.152344 3.363281 7.515625 7.511719 7.515625zm0 0"/><path d="m102.683594 296.5c15.28125 0 27.714844-12.433594 27.714844-27.714844s-12.433594-27.714844-27.714844-27.714844-27.710938 12.433594-27.710938 27.714844 12.429688 27.714844 27.710938 27.714844zm0-40.398438c6.996094 0 12.683594 5.691407 12.683594 12.683594 0 6.996094-5.6875 12.683594-12.683594 12.683594-6.992188 0-12.683594-5.6875-12.683594-12.683594 0-6.992187 5.691406-12.683594 12.683594-12.683594zm0 0"/><path d="m299.601562 336.300781h-35.578124c-4.148438 0-7.515626 3.363281-7.515626 7.515625 0 4.148438 3.367188 7.511719 7.515626 7.511719h35.578124c4.148438 0 7.511719-3.363281 7.511719-7.511719 0-4.152344-3.363281-7.515625-7.511719-7.515625zm0 0"/><path d="m161.699219 351.328125h67.132812c4.148438 0 7.515625-3.363281 7.515625-7.511719 0-4.152344-3.367187-7.515625-7.515625-7.515625h-67.132812c-4.148438 0-7.511719 3.363281-7.511719 7.515625 0 4.148438 3.363281 7.511719 7.511719 7.511719zm0 0"/><path d="m299.601562 366.015625h-57.273437c-4.148437 0-7.515625 3.363281-7.515625 7.511719 0 4.152344 3.363281 7.515625 7.515625 7.515625h57.273437c4.148438 0 7.511719-3.363281 7.511719-7.515625 0-4.148438-3.363281-7.511719-7.511719-7.511719zm0 0"/><path d="m161.699219 381.042969h45.839843c4.152344 0 7.515626-3.363281 7.515626-7.515625 0-4.148438-3.363282-7.515625-7.515626-7.515625h-45.839843c-4.148438 0-7.511719 3.367187-7.511719 7.515625 0 4.152344 3.363281 7.515625 7.511719 7.515625zm0 0"/><path d="m102.683594 386.386719c15.28125 0 27.714844-12.433594 27.714844-27.714844s-12.433594-27.714844-27.714844-27.714844-27.710938 12.433594-27.710938 27.714844 12.429688 27.714844 27.710938 27.714844zm0-40.398438c6.996094 0 12.683594 5.691407 12.683594 12.683594s-5.6875 12.683594-12.683594 12.683594c-6.992188 0-12.683594-5.691407-12.683594-12.683594s5.691406-12.683594 12.683594-12.683594zm0 0"/></svg>