<svg height="512pt" viewBox="-68 0 512 512" width="512pt" xmlns="http://www.w3.org/2000/svg"><path d="m375 37.5c0-20.679688-16.820312-37.5-37.5-37.5h-300c-20.679688 0-37.5 16.820312-37.5 37.5v96c0 8.269531 6.730469 15 15 15h92.5c4.140625 0 7.5-3.359375 7.5-7.5s-3.359375-7.5-7.5-7.5h-92.5v-96c0-12.40625 10.09375-22.5 22.5-22.5h300c12.40625 0 22.5 10.09375 22.5 22.5v96h-92.5c-4.144531 0-7.5 3.359375-7.5 7.5s3.355469 7.5 7.5 7.5h92.5v326c0 12.40625-10.09375 22.5-22.5 22.5h-300c-12.40625 0-22.5-10.09375-22.5-22.5v-304.5c0-4.140625-3.359375-7.5-7.5-7.5s-7.5 3.359375-7.5 7.5v304.5c0 20.679688 16.820312 37.5 37.5 37.5h300c20.679688 0 37.5-16.820312 37.5-37.5v-326.5c0-2.355469-1.085938-4.453125-2.78125-5.828125 1.742188-2.453125 2.78125-5.441406 2.78125-8.671875zm0 0"/><path d="m53.5 222.875h22c12.40625 0 22.5-10.09375 22.5-22.5v-19.375c0-12.40625-10.09375-22.5-22.5-22.5h-22c-12.40625 0-22.5 10.09375-22.5 22.5v19.375c0 12.40625 10.09375 22.5 22.5 22.5zm-7.5-41.875c0-4.136719 3.363281-7.5 7.5-7.5h22c4.136719 0 7.5 3.363281 7.5 7.5v19.375c0 4.136719-3.363281 7.5-7.5 7.5h-22c-4.136719 0-7.5-3.363281-7.5-7.5zm0 0"/><path d="m113 200.375c0 12.40625 10.09375 22.5 22.5 22.5h22c12.40625 0 22.5-10.09375 22.5-22.5v-19.375c0-12.40625-10.09375-22.5-22.5-22.5h-22c-12.40625 0-22.5 10.09375-22.5 22.5zm15-19.375c0-4.136719 3.363281-7.5 7.5-7.5h22c4.136719 0 7.5 3.363281 7.5 7.5v19.375c0 4.136719-3.363281 7.5-7.5 7.5h-22c-4.136719 0-7.5-3.363281-7.5-7.5zm0 0"/><path d="m262 181c0-12.40625-10.09375-22.5-22.5-22.5h-22c-12.40625 0-22.5 10.09375-22.5 22.5v19.375c0 12.40625 10.09375 22.5 22.5 22.5h22c12.40625 0 22.5-10.09375 22.5-22.5zm-15 19.375c0 4.136719-3.363281 7.5-7.5 7.5h-22c-4.136719 0-7.5-3.363281-7.5-7.5v-19.375c0-4.136719 3.363281-7.5 7.5-7.5h22c4.136719 0 7.5 3.363281 7.5 7.5zm0 0"/><path d="m31 279.75c0 12.40625 10.09375 22.5 22.5 22.5h22c12.40625 0 22.5-10.09375 22.5-22.5v-19.375c0-12.40625-10.09375-22.5-22.5-22.5h-22c-12.40625 0-22.5 10.09375-22.5 22.5zm15-19.375c0-4.136719 3.363281-7.5 7.5-7.5h22c4.136719 0 7.5 3.363281 7.5 7.5v19.375c0 4.136719-3.363281 7.5-7.5 7.5h-22c-4.136719 0-7.5-3.363281-7.5-7.5zm0 0"/><path d="m113 279.75c0 12.40625 10.09375 22.5 22.5 22.5h22c12.40625 0 22.5-10.09375 22.5-22.5v-19.375c0-12.40625-10.09375-22.5-22.5-22.5h-22c-12.40625 0-22.5 10.09375-22.5 22.5zm15-19.375c0-4.136719 3.363281-7.5 7.5-7.5h22c4.136719 0 7.5 3.363281 7.5 7.5v19.375c0 4.136719-3.363281 7.5-7.5 7.5h-22c-4.136719 0-7.5-3.363281-7.5-7.5zm0 0"/><path d="m31 359.125c0 12.40625 10.09375 22.5 22.5 22.5h22c12.40625 0 22.5-10.09375 22.5-22.5v-19.375c0-12.40625-10.09375-22.5-22.5-22.5h-22c-12.40625 0-22.5 10.09375-22.5 22.5zm15-19.375c0-4.136719 3.363281-7.5 7.5-7.5h22c4.136719 0 7.5 3.363281 7.5 7.5v19.375c0 4.136719-3.363281 7.5-7.5 7.5h-22c-4.136719 0-7.5-3.363281-7.5-7.5zm0 0"/><path d="m113 359.125c0 12.40625 10.09375 22.5 22.5 22.5h22c12.40625 0 22.5-10.09375 22.5-22.5v-19.375c0-12.40625-10.09375-22.5-22.5-22.5h-22c-12.40625 0-22.5 10.09375-22.5 22.5zm15-19.375c0-4.136719 3.363281-7.5 7.5-7.5h22c4.136719 0 7.5 3.363281 7.5 7.5v19.375c0 4.136719-3.363281 7.5-7.5 7.5h-22c-4.136719 0-7.5-3.363281-7.5-7.5zm0 0"/><path d="m113 438.5c0 12.40625 10.09375 22.5 22.5 22.5h22c12.40625 0 22.5-10.09375 22.5-22.5v-19.375c0-12.40625-10.09375-22.5-22.5-22.5h-22c-12.40625 0-22.5 10.09375-22.5 22.5zm15-19.375c0-4.136719 3.363281-7.5 7.5-7.5h22c4.136719 0 7.5 3.363281 7.5 7.5v19.375c0 4.136719-3.363281 7.5-7.5 7.5h-22c-4.136719 0-7.5-3.363281-7.5-7.5zm0 0"/><path d="m262 260.375c0-12.40625-10.09375-22.5-22.5-22.5h-22c-12.40625 0-22.5 10.09375-22.5 22.5v19.375c0 12.40625 10.09375 22.5 22.5 22.5h22c12.40625 0 22.5-10.09375 22.5-22.5zm-15 19.375c0 4.136719-3.363281 7.5-7.5 7.5h-22c-4.136719 0-7.5-3.363281-7.5-7.5v-19.375c0-4.136719 3.363281-7.5 7.5-7.5h22c4.136719 0 7.5 3.363281 7.5 7.5zm0 0"/><path d="m262 339.75c0-12.40625-10.09375-22.5-22.5-22.5h-22c-12.40625 0-22.5 10.09375-22.5 22.5v19.375c0 12.40625 10.09375 22.5 22.5 22.5h22c12.40625 0 22.5-10.09375 22.5-22.5zm-15 19.375c0 4.136719-3.363281 7.5-7.5 7.5h-22c-4.136719 0-7.5-3.363281-7.5-7.5v-19.375c0-4.136719 3.363281-7.5 7.5-7.5h22c4.136719 0 7.5 3.363281 7.5 7.5zm0 0"/><path d="m299.5 222.875h22c12.40625 0 22.5-10.09375 22.5-22.5v-19.375c0-12.40625-10.09375-22.5-22.5-22.5h-22c-12.40625 0-22.5 10.09375-22.5 22.5v19.375c0 12.40625 10.09375 22.5 22.5 22.5zm-7.5-41.875c0-4.136719 3.363281-7.5 7.5-7.5h22c4.136719 0 7.5 3.363281 7.5 7.5v19.375c0 4.136719-3.363281 7.5-7.5 7.5h-22c-4.136719 0-7.5-3.363281-7.5-7.5zm0 0"/><path d="m277 279.75c0 12.40625 10.09375 22.5 22.5 22.5h22c12.40625 0 22.5-10.09375 22.5-22.5v-19.375c0-12.40625-10.09375-22.5-22.5-22.5h-22c-12.40625 0-22.5 10.09375-22.5 22.5zm15-19.375c0-4.136719 3.363281-7.5 7.5-7.5h22c4.136719 0 7.5 3.363281 7.5 7.5v19.375c0 4.136719-3.363281 7.5-7.5 7.5h-22c-4.136719 0-7.5-3.363281-7.5-7.5zm0 0"/><path d="m277 438.5c0 12.40625 10.09375 22.5 22.5 22.5h22c12.40625 0 22.5-10.09375 22.5-22.5v-99.375c0-12.40625-10.09375-22.5-22.5-22.5h-22c-12.40625 0-22.5 10.09375-22.5 22.5zm15-99.375c0-4.136719 3.363281-7.5 7.5-7.5h22c4.136719 0 7.5 3.363281 7.5 7.5v99.375c0 4.136719-3.363281 7.5-7.5 7.5h-22c-4.136719 0-7.5-3.363281-7.5-7.5zm0 0"/><path d="m239.5 396.625h-22c-12.40625 0-22.5 10.09375-22.5 22.5v19.375c0 12.40625 10.09375 22.5 22.5 22.5h22c12.40625 0 22.5-10.09375 22.5-22.5v-19.375c0-12.40625-10.09375-22.5-22.5-22.5zm7.5 41.875c0 4.136719-3.363281 7.5-7.5 7.5h-22c-4.136719 0-7.5-3.363281-7.5-7.5v-19.375c0-4.136719 3.363281-7.5 7.5-7.5h22c4.136719 0 7.5 3.363281 7.5 7.5zm0 0"/><path d="m31 438.5c0 12.40625 10.09375 22.5 22.5 22.5h22c12.40625 0 22.5-10.09375 22.5-22.5v-19.375c0-12.40625-10.09375-22.5-22.5-22.5h-22c-12.40625 0-22.5 10.09375-22.5 22.5zm15-19.375c0-4.136719 3.363281-7.5 7.5-7.5h22c4.136719 0 7.5 3.363281 7.5 7.5v19.375c0 4.136719-3.363281 7.5-7.5 7.5h-22c-4.136719 0-7.5-3.363281-7.5-7.5zm0 0"/><path d="m337.5 88.5v-36.875c0-12.40625-10.59375-22.5-23-22.5h-254c-12.40625 0-22.5 10.09375-22.5 22.5v36.875c0 12.40625 10.09375 22.5 22.5 22.5h254c12.40625 0 23-10.09375 23-22.5zm-284.5 0v-36.875c0-4.136719 3.363281-7.5 7.5-7.5h254c4.136719 0 7.5 3.363281 7.5 7.5v36.875c0 4.136719-3.363281 7.5-7.5 7.5h-254c-4.136719 0-7.5-3.363281-7.5-7.5zm0 0"/></svg>