<svg height="512pt" viewBox="0 0 512 512.001" width="512pt" xmlns="http://www.w3.org/2000/svg"><path d="m487.777344 147.164062c-1.765625-3.753906-6.242188-5.367187-9.996094-3.601562s-5.367188 6.242188-3.601562 9.996094c15.128906 32.15625 22.796874 66.621094 22.796874 102.441406 0 64.367188-25.066406 124.878906-70.582031 170.394531-45.511719 45.515625-106.027343 70.582031-170.394531 70.582031s-124.882812-25.066406-170.394531-70.582031c-45.515625-45.511719-70.582031-106.027343-70.582031-170.394531s25.066406-124.878906 70.582031-170.394531 106.027343-70.582031 170.394531-70.582031c81.5 0 156.878906 40.738281 201.640625 108.976562 2.277344 3.46875 6.933594 4.4375 10.402344 2.160156 3.46875-2.273437 4.4375-6.929687 2.160156-10.402344-47.546875-72.484374-127.625-115.757812-214.203125-115.757812-68.378906 0-132.667969 26.628906-181.019531 74.980469-48.351563 48.351562-74.980469 112.640625-74.980469 181.019531 0 68.382812 26.628906 132.667969 74.980469 181.019531 48.351562 48.351563 112.640625 74.980469 181.019531 74.980469 68.382812 0 132.667969-26.628906 181.019531-74.980469 48.351563-48.351562 74.980469-112.636719 74.980469-181.019531 0-38.046875-8.148438-74.664062-24.222656-108.835938zm0 0"/><path d="m256 469.03125c117.46875 0 213.03125-95.566406 213.03125-213.03125s-95.5625-213.03125-213.03125-213.03125c-117.464844 0-213.03125 95.566406-213.03125 213.03125 0 38.132812 10.195312 75.550781 29.488281 108.207031 2.113281 3.574219 6.71875 4.757813 10.289063 2.648438 3.574218-2.109375 4.757812-6.71875 2.648437-10.289063-17.925781-30.34375-27.402343-65.117187-27.402343-100.566406 0-109.179688 88.828124-198.007812 198.007812-198.007812 109.183594 0 198.007812 88.828124 198.007812 198.007812s-88.824218 198.007812-198.007812 198.007812c-58.140625 0-113.125-25.417968-150.847656-69.738281-2.691406-3.160156-7.429688-3.539062-10.589844-.851562-3.160156 2.691406-3.542969 7.433593-.851562 10.589843 40.582031 47.679688 99.734374 75.023438 162.289062 75.023438zm0 0"/><path d="m256 115.046875c4.148438 0 7.515625-3.363281 7.515625-7.511719v-28.089844c0-4.148437-3.363281-7.511718-7.515625-7.511718-4.148438 0-7.511719 3.363281-7.511719 7.511718v28.089844c0 4.148438 3.363281 7.511719 7.511719 7.511719zm0 0"/><path d="m248.488281 404.464844v28.089844c0 4.148437 3.363281 7.511718 7.511719 7.511718s7.515625-3.363281 7.515625-7.511718v-28.089844c0-4.148438-3.363281-7.511719-7.515625-7.511719-4.148438 0-7.511719 3.363281-7.511719 7.511719zm0 0"/><path d="m115.046875 256c0-4.148438-3.363281-7.511719-7.511719-7.511719h-28.085937c-4.152344 0-7.515625 3.363281-7.515625 7.511719s3.363281 7.511719 7.515625 7.511719h28.085937c4.148438 0 7.511719-3.363281 7.511719-7.511719zm0 0"/><path d="m432.554688 263.511719c4.148437 0 7.511718-3.363281 7.511718-7.511719s-3.363281-7.511719-7.511718-7.511719h-28.089844c-4.148438 0-7.511719 3.363281-7.511719 7.511719s3.363281 7.511719 7.511719 7.511719zm0 0"/><path d="m248.488281 222.582031c-12.867187 2.890625-23.015625 13.035157-25.90625 25.90625h-42.757812c-4.148438 0-7.511719 3.363281-7.511719 7.511719s3.367188 7.511719 7.511719 7.511719h42.757812c3.433594 15.289062 17.109375 26.75 33.417969 26.75 18.890625 0 34.261719-15.371094 34.261719-34.261719 0-16.308594-11.460938-29.984375-26.746094-33.417969v-79.9375c0-4.148437-3.363281-7.511719-7.515625-7.511719-4.148438 0-7.511719 3.363282-7.511719 7.511719zm7.511719 14.183594c10.609375 0 19.234375 8.628906 19.234375 19.234375s-8.625 19.234375-19.234375 19.234375c-10.605469 0-19.234375-8.628906-19.234375-19.234375s8.628906-19.234375 19.234375-19.234375zm0 0"/><path d="m178.671875 122.863281c0 5.355469-4.339844 9.695313-9.695313 9.695313-5.355468 0-9.695312-4.339844-9.695312-9.695313 0-5.351562 4.339844-9.691406 9.695312-9.691406 5.355469 0 9.695313 4.339844 9.695313 9.691406zm0 0"/><path d="m128.078125 183.152344c0 5.355468-4.339844 9.695312-9.695313 9.695312-5.355468 0-9.695312-4.339844-9.695312-9.695312 0-5.351563 4.339844-9.691406 9.695312-9.691406 5.355469 0 9.695313 4.339843 9.695313 9.691406zm0 0"/><path d="m352.71875 122.863281c0 5.355469-4.339844 9.695313-9.695312 9.695313-5.351563 0-9.695313-4.339844-9.695313-9.695313 0-5.351562 4.34375-9.691406 9.695313-9.691406 5.355468 0 9.695312 4.339844 9.695312 9.691406zm0 0"/><path d="m403.3125 183.152344c0 5.355468-4.339844 9.695312-9.695312 9.695312-5.355469 0-9.695313-4.339844-9.695313-9.695312 0-5.351563 4.339844-9.691406 9.695313-9.691406 5.355468 0 9.695312 4.339843 9.695312 9.691406zm0 0"/><path d="m178.671875 389.136719c0 5.351562-4.339844 9.691406-9.695313 9.691406-5.355468 0-9.695312-4.339844-9.695312-9.691406 0-5.355469 4.339844-9.695313 9.695312-9.695313 5.355469 0 9.695313 4.339844 9.695313 9.695313zm0 0"/><path d="m128.078125 328.847656c0 5.355469-4.339844 9.695313-9.695313 9.695313-5.355468 0-9.695312-4.339844-9.695312-9.695313 0-5.355468 4.339844-9.695312 9.695312-9.695312 5.355469 0 9.695313 4.339844 9.695313 9.695312zm0 0"/><path d="m352.71875 389.136719c0 5.351562-4.339844 9.691406-9.695312 9.691406-5.351563 0-9.695313-4.339844-9.695313-9.691406 0-5.355469 4.34375-9.695313 9.695313-9.695313 5.355468 0 9.695312 4.339844 9.695312 9.695313zm0 0"/><path d="m403.3125 328.847656c0 5.355469-4.339844 9.695313-9.695312 9.695313-5.355469 0-9.695313-4.339844-9.695313-9.695313 0-5.355468 4.339844-9.695312 9.695313-9.695312 5.355468 0 9.695312 4.339844 9.695312 9.695312zm0 0"/></svg>