<?xml version="1.0" encoding="iso-8859-1"?>
<!-- Generator: Adobe Illustrator 19.0.0, SVG Export Plug-In . SVG Version: 6.00 Build 0)  -->
<svg xmlns="http://www.w3.org/2000/svg" xmlns:xlink="http://www.w3.org/1999/xlink" version="1.1" id="Layer_1" x="0px" y="0px" viewBox="0 0 512.002 512.002" style="enable-background:new 0 0 512.002 512.002;" xml:space="preserve" width="512" height="512">
<g id="XMLID_121_">
	<g id="XMLID_122_">
		<g id="XMLID_123_">
			<path id="XMLID_124_" d="M494.841,166.183c-1.577-3.829-5.96-5.654-9.791-4.08c-3.83,1.577-5.656,5.96-4.08,9.791     c10.488,25.477,16.032,54.56,16.032,84.105c0,74.637-34.665,138.083-82.521,160.14c0.599-4.824,0.911-9.693,0.911-14.566     c0-21.666-5.935-42.853-17.162-61.27c-6.549-10.741-10.01-23.114-10.01-35.783c0-12.662,3.461-25.032,10.009-35.773     c11.229-18.417,17.163-39.604,17.163-61.27c0-21.671-5.935-42.861-17.162-61.279c-6.549-10.741-10.01-23.111-10.01-35.773     c0-7.416,1.176-14.676,3.479-21.638c27.957,4.83,54.188,23.583,73.557,53.114c2.271,3.463,6.922,4.431,10.385,2.158     c3.464-2.271,4.43-6.921,2.158-10.385c-25.485-38.855-62.108-61.14-100.48-61.14c-28.074,0-54.949,11.579-77.721,33.485     c-19.929,19.173-35.481,45.049-45.327,75.21c-33.97-33.234-75.213-55.144-116.435-61.778c-42.927-6.904-80.76,3.48-106.53,29.249     C6.917,173.093-3.779,208.746,1.19,249.094c4.838,39.288,24.124,79.643,54.305,113.629c1.482,1.668,3.542,2.52,5.611,2.52     c1.771,0,3.549-0.624,4.978-1.892c3.097-2.751,3.378-7.491,0.628-10.589C38.53,321.028,20.548,283.56,16.077,247.26     c-2.511-20.395-0.578-39.337,5.469-55.759c2.981,3.824,6.196,7.479,9.632,10.916c15.319,15.318,34.497,26.104,55.46,31.188     c12.227,2.966,23.423,9.268,32.381,18.226c8.953,8.952,15.253,20.146,18.218,32.372c5.084,20.964,15.869,40.142,31.188,55.461     c15.324,15.323,34.504,26.11,55.467,31.193c12.226,2.967,23.421,9.267,32.374,18.219c5.253,5.253,9.552,11.225,12.845,17.781     c-19.796,14.008-45.824,19.936-74.831,16.773c-35.325-3.848-72.133-20.703-103.643-47.463c-3.156-2.682-7.891-2.296-10.571,0.862     c-2.681,3.157-2.295,7.89,0.862,10.571c40.292,34.218,86.75,51.867,128.29,51.867c31.689,0,60.519-10.276,81.55-31.307     c1.843-1.843,3.601-3.757,5.285-5.729c23.263,23.938,51.86,37.033,81.268,37.033c36.443,0,70.541-19.407,96.01-54.646     c24.938-34.504,38.673-80.253,38.673-128.819C512.002,224.513,506.067,193.456,494.841,166.183z M400.393,207.478     c0,18.91-5.177,37.396-14.971,53.461c-7.981,13.095-12.201,28.165-12.201,43.582c0,15.424,4.22,30.497,12.202,43.592     c9.793,16.064,14.97,34.551,14.97,53.461c0,6.821-0.683,13.631-2.018,20.279c-6.541,1.641-13.265,2.521-20.124,2.595     c2.1-7.411,3.167-15.073,3.167-22.874c0-15.417-4.219-30.487-12.2-43.582c-9.795-16.066-14.972-34.556-14.972-53.471     c0-18.909,5.177-37.396,14.972-53.462c7.981-13.094,12.2-28.164,12.2-43.581c0-15.423-4.219-30.497-12.2-43.592     c-9.795-16.066-14.972-34.553-14.972-53.461c0-6.789,0.673-13.566,1.997-20.184c6.595-1.699,13.331-2.617,20.147-2.694     c-2.101,7.413-3.169,15.076-3.169,22.878c0,15.417,4.22,30.487,12.201,43.582C395.216,170.072,400.393,188.562,400.393,207.478z      M227.427,356.28c-18.285-4.435-35.021-13.848-48.396-27.224c-13.371-13.37-22.782-30.104-27.217-48.389     c-3.615-14.904-11.288-28.544-22.189-39.444c-10.906-10.905-24.548-18.58-39.451-22.196     c-18.285-4.435-35.019-13.846-48.389-27.216c-4.815-4.816-9.143-10.108-12.895-15.743c3.491-5.846,7.624-11.233,12.377-16.091     c3.755,6.724,8.417,12.898,13.935,18.417c10.902,10.901,24.541,18.573,39.444,22.188c18.286,4.436,35.021,13.85,48.396,27.225     c13.37,13.369,22.781,30.102,27.216,48.388c3.614,14.901,11.287,28.541,22.189,39.445c10.905,10.904,24.547,18.58,39.451,22.196     c18.287,4.435,35.02,13.846,48.389,27.217c4.81,4.809,9.133,10.086,12.881,15.713c-3.48,5.862-7.615,11.257-12.37,16.12     c-3.754-6.722-8.409-12.897-13.928-18.417C255.97,367.569,242.33,359.896,227.427,356.28z M305.031,390.11     c18.96-30.568,22.359-71.897,8.611-114.971c-1.259-3.945-5.482-6.126-9.425-4.864c-3.946,1.259-6.124,5.479-4.864,9.425     c9.948,31.169,10.083,61.102,1.12,85.592c-2.966-3.798-6.161-7.428-9.578-10.844c-15.318-15.319-34.496-26.104-55.46-31.188     c-12.227-2.967-23.423-9.27-32.38-18.226c-8.954-8.955-15.255-20.15-18.219-32.374c-5.084-20.964-15.869-40.142-31.188-55.46     c-15.323-15.322-34.504-26.11-55.468-31.195c-12.225-2.965-23.419-9.265-32.372-18.217c-5.255-5.255-9.562-11.231-12.856-17.791     c48.98-34.787,131.874-17.031,192.711,43.805c16.741,16.742,30.508,35.381,40.918,55.398c1.913,3.676,6.442,5.104,10.114,3.194     c3.676-1.911,5.105-6.439,3.194-10.114c-8.993-17.292-20.316-33.602-33.748-48.64c13.288-46.715,40.973-82.134,73.989-97.585     c-0.583,4.76-0.887,9.562-0.887,14.369c0,21.664,5.936,42.851,17.163,61.269c6.548,10.742,10.009,23.116,10.009,35.784     c0,12.662-3.461,25.032-10.008,35.773c-11.229,18.418-17.164,39.605-17.164,61.27c0,21.67,5.936,42.86,17.163,61.278     c6.548,10.742,10.009,23.112,10.009,35.774c0,7.419-1.175,14.681-3.48,21.644C342.002,419.607,321.931,408.187,305.031,390.11z"/>
		</g>
	</g>
</g>















</svg>
