<?xml version="1.0" encoding="iso-8859-1"?>
<!-- Generator: Adobe Illustrator 19.0.0, SVG Export Plug-In . SVG Version: 6.00 Build 0)  -->
<svg xmlns="http://www.w3.org/2000/svg" xmlns:xlink="http://www.w3.org/1999/xlink" version="1.1" id="Layer_1" x="0px" y="0px" viewBox="0 0 512 512" style="enable-background:new 0 0 512 512;" xml:space="preserve" width="512" height="512">
<g>
	<path d="M484.636,351.192c15.089,0,27.364-12.275,27.364-27.364c0-35.645-22.292-67.86-55.472-80.164   c-5.926-2.197-12.045-3.962-18.177-5.375c0.001-0.274,0.002-0.548,0.002-0.821c0-58.544-22.798-113.584-64.195-154.98   c-41.396-41.397-96.437-64.195-154.981-64.195c-58.544,0-113.584,22.798-154.981,64.195C22.798,123.885,0,178.925,0,237.469   S22.798,351.054,64.195,392.45c41.397,41.397,96.437,64.195,154.981,64.195c6.674,0,13.379-0.304,20.022-0.905v9.313   c0,15.8,12.854,28.653,28.653,28.653h203.955c15.8,0,28.653-12.854,28.653-28.653v-55.371c0-7.308-2.752-14.267-7.749-19.598   l-38.169-40.714c3.001,1.174,6.232,1.822,9.562,1.822H484.636z M387.355,232.978h-35.053c-8.723,0-19.363,0.417-30.678,1.794   c-0.106-19.303-1.349-38.213-3.66-56.351h96.684c5.477,18.097,8.504,37.247,8.694,57.063   C410.065,233.533,397.432,232.978,387.355,232.978z M409.887,319.445h-14.784v-11.261c0-0.479,0.391-0.87,0.87-0.87h13.044   c0.479,0,0.87,0.391,0.87,0.87V319.445z M415.511,293.705c-1.983-0.893-4.182-1.39-6.494-1.39h-13.044   c-8.751,0-15.87,7.119-15.87,15.87v11.261h-19.373v-11.261c0-8.751-7.119-15.87-15.87-15.87h-13.044   c-8.751,0-15.87,7.119-15.87,15.87v12.137c-3.273,1.007-6.271,2.852-8.646,5.385l-5.786,6.172c0.563-1.812,0.932-3.699,1.082-5.636   c1.84-23.836,13.286-36.308,23.643-36.308h87.182c1.046,0,2.061,0.107,3.046,0.313C416.158,291.402,415.84,292.554,415.511,293.705   z M345.729,319.445h-14.784v-11.261c0-0.479,0.391-0.87,0.87-0.87h13.044c0.479,0,0.87,0.391,0.87,0.87V319.445z M246.948,390.085   c-4.997,5.331-7.75,12.291-7.75,19.598v26.278c-6.58,3.774-13.299,5.685-20.022,5.685c-21.91,0-43.889-20.982-60.3-57.568   c-9.39-20.933-16.517-45.612-21.109-72.56h90.784c-0.589,4.04-0.893,8.152-0.893,12.311c0,15.089,12.275,27.364,27.364,27.364   h20.531c3.33,0,6.561-0.647,9.563-1.822L246.948,390.085z M232.143,296.518h-96.639c-2.493-18.91-3.783-38.75-3.783-59.049   c0-20.219,1.29-40.061,3.802-59.048h167.326c2.48,18.811,3.769,38.541,3.782,58.729c-7.899,1.566-15.861,3.681-23.502,6.515   C258.744,252.707,240.239,272.506,232.143,296.518z M409.459,163.421h-93.677c-4.79-29.195-12.436-55.997-22.62-78.699   c-8.942-19.933-19.412-35.699-30.923-46.859C329.668,52.395,384.823,100.329,409.459,163.421z M176.089,37.867   c-11.789,11.438-22.481,27.712-31.567,48.358c-1.668,3.791,0.053,8.217,3.844,9.886c3.79,1.664,8.217-0.053,9.886-3.845   c16.492-37.479,38.698-58.974,60.925-58.974c21.91,0,43.888,20.982,60.3,57.568c9.39,20.933,16.518,45.612,21.11,72.56H137.793   c2.616-15.315,6.059-29.956,10.289-43.651c1.223-3.958-0.995-8.157-4.952-9.38c-3.96-1.22-8.157,0.994-9.38,4.952   c-4.653,15.062-8.389,31.199-11.163,48.079H28.893C53.527,100.337,108.672,52.406,176.089,37.867z M23.703,178.421H120.4   c-2.432,19.047-3.679,38.878-3.679,59.048c0,20.239,1.249,40.067,3.667,59.049H23.704c-5.66-18.7-8.704-38.526-8.704-59.049   C15,216.946,18.044,197.121,23.703,178.421z M28.893,311.518h93.677c4.79,29.195,12.436,55.997,22.62,78.699   c8.942,19.933,19.412,35.699,30.923,46.859C108.685,422.544,53.53,374.609,28.893,311.518z M485.46,409.683v55.371   c0,7.528-6.125,13.653-13.653,13.653H267.852c-7.528,0-13.653-6.125-13.653-13.653v-17.492c0.003-0.116,0.003-0.233,0-0.35v-37.529   c0-3.481,1.312-6.798,3.692-9.338l60.353-64.378c0.906-0.967,2.187-1.521,3.513-1.521h96.146c1.326,0,2.606,0.555,3.513,1.521   l60.353,64.378C484.148,402.884,485.46,406.2,485.46,409.683z M432.358,325.707c-2.088-2.227-4.657-3.922-7.472-4.983v-7.449   c1.574-4.271,3.02-8.61,4.328-12.989c4.4,6.922,7.116,16.47,7.848,25.957c0.15,1.938,0.519,3.825,1.082,5.636L432.358,325.707z    M452.018,325.088c-2.659-34.459-21.872-50.153-38.598-50.153h-87.182c-9.323,0-18.624,4.818-25.517,13.22   c-7.389,9.005-11.912,21.776-13.081,36.934c-0.465,6.02-6,11.104-12.087,11.104h-20.531c-6.818,0-12.364-5.547-12.364-12.364   c0-29.403,18.36-55.967,45.687-66.1c21.735-8.06,46.777-9.751,63.958-9.751h35.053c17.181,0,42.224,1.691,63.958,9.751   C478.64,267.862,497,294.426,497,323.828c0,6.817-5.547,12.364-12.364,12.364h-20.531   C458.018,336.192,452.482,331.107,452.018,325.088z"/>
	<path d="M409.023,392.454c-3.865,1.487-5.794,5.827-4.307,9.693c5.339,13.876,1.998,29.633-8.513,40.143   c-7.106,7.107-16.555,11.021-26.605,11.021s-19.499-3.914-26.605-11.021c-7.107-7.106-11.021-16.555-11.021-26.605   c0-10.05,3.914-19.498,11.021-26.604c11.98-11.982,30.604-14.477,45.286-6.069c3.594,2.061,8.177,0.813,10.235-2.78   c2.059-3.595,0.813-8.177-2.78-10.235c-20.544-11.766-46.593-8.279-63.348,8.478c-9.94,9.939-15.415,23.155-15.415,37.212   s5.475,27.272,15.414,37.213c10.26,10.259,23.736,15.389,37.213,15.389s26.953-5.13,37.213-15.389   c14.697-14.698,19.37-36.733,11.905-56.137C417.23,392.896,412.892,390.962,409.023,392.454z"/>
</g>















</svg>
