<?xml version="1.0" encoding="iso-8859-1"?>
<!-- Generator: Adobe Illustrator 19.0.0, SVG Export Plug-In . SVG Version: 6.00 Build 0)  -->
<svg version="1.1" id="Capa_1" xmlns="http://www.w3.org/2000/svg" xmlns:xlink="http://www.w3.org/1999/xlink" x="0px" y="0px"
	 viewBox="0 0 463 463" style="enable-background:new 0 0 463 463;" xml:space="preserve">
<g>
	<path d="M413.706,195.289c-1.567-2.309-4.288-3.554-7.056-3.241c-20.458,2.335-40.937,10.581-61.032,24.509
		c-5.439-46.427-14.892-88.757-27.891-123.791C295.532,32.945,264.909,0,231.5,0c-19.675,0-48.697,11.572-75.226,66.704
		c-18.539,38.528-31.916,90.144-38.901,149.876c-18.084-12.563-38.586-21.972-61.024-24.532c-2.768-0.313-5.487,0.931-7.054,3.237
		c-1.69,2.488-1.79,3.121,0.217,17.192c0.996,6.983,2.801,18.095,5.748,31.37c5.201,23.438,15.028,58.226,32.307,90.855
		c15.044,28.41,33.386,50.917,54.516,66.896c17.685,13.374,37.385,22.227,58.828,26.473l4.282,17.128
		c2.62,10.48,11.996,17.8,22.798,17.8h7.015c10.803,0,20.178-7.319,22.798-17.8l4.282-17.129
		c21.431-4.244,41.119-13.089,58.796-26.449c21.126-15.967,39.467-38.459,54.512-66.852c17.295-32.639,27.131-67.444,32.337-90.896
		c2.949-13.284,4.756-24.402,5.752-31.391C415.493,198.409,415.394,197.776,413.706,195.289z M169.791,73.207
		C187.852,35.672,209.768,15,231.5,15c16.745,0,33.49,12.284,48.5,34.813V55.5c0,4.143,3.358,7.5,7.5,7.5
		c0.149,0,0.296-0.014,0.443-0.022c5.587,10.204,10.862,21.91,15.722,35.007c13.236,35.672,22.69,79.261,27.836,127.179
		c-1.159-0.733-2.528-1.164-4.001-1.164c-4.142,0-7.5,3.357-7.5,7.5v16c0,4.143,3.358,7.5,7.5,7.5c2.689,0,5.04-1.419,6.364-3.545
		c1.412,19.512,2.136,39.6,2.136,60.045c0,5.085-0.372,10.084-1.078,14.977c-0.5-3.657-3.628-6.477-7.422-6.477
		c-4.142,0-7.5,3.357-7.5,7.5v16c0,4.143,3.358,7.5,7.5,7.5c0.255,0,0.507-0.013,0.756-0.038
		c-2.893,7.067-6.537,13.748-10.835,19.945c-1.372-1.766-3.511-2.907-5.92-2.907c-4.142,0-7.5,3.357-7.5,7.5v11.184
		c-17.211,16.603-40.088,27.365-65.409,29.07c-0.525-5.481-1.565-11.501-3.071-17.93c2.089-1.331,3.479-3.663,3.479-6.324v-16
		c0-4.143-3.358-7.5-7.5-7.5c-1.733,0-3.325,0.594-4.595,1.581c-3.878-10.577-8.576-21.613-13.939-32.707
		c1.258-1.341,2.034-3.14,2.034-5.124v-4.25c0-4.143-3.358-7.5-7.5-7.5c-1.02,0-1.992,0.205-2.878,0.574
		c-3.299-6.101-6.775-12.153-10.401-18.091c2.795-1.09,4.779-3.802,4.779-6.983v-16c0-4.143-3.358-7.5-7.5-7.5s-7.5,3.357-7.5,7.5
		v7.145c-12.123-17.737-30.092-40.563-52.708-59.432C137.699,166.161,151.331,111.572,169.791,73.207z M92.313,310.119
		c-16.101-36.336-23.687-72.661-27.01-93.457c7.869,7.083,15.341,16.003,22.598,26.98c1.443,2.182,3.83,3.364,6.263,3.364
		c1.42,0,2.856-0.403,4.129-1.245c3.456-2.284,4.404-6.938,2.12-10.393c-4.932-7.459-9.992-14.077-15.223-19.931
		c40.645,17.911,72.312,58.263,89.303,83.951c21.658,32.745,44.533,81.399,48.791,114.1c-39.009-13.17-60.649-52.986-80.99-96.253
		c-1.763-3.749-6.231-5.36-9.979-3.597c-3.749,1.762-5.359,6.229-3.597,9.978c14.876,31.644,31.391,63.183,55.626,84.226
		c-14.733-5.436-28.379-13.561-40.818-24.381C123.32,365.882,106.089,341.206,92.313,310.119z M243.253,441.563
		c-0.947,3.79-4.338,6.438-8.246,6.438h-7.015c-3.908,0-7.299-2.647-8.247-6.438l-2.802-11.208
		c4.764,0.425,9.604,0.645,14.519,0.646c0.015,0,0.03,0.002,0.045,0.002c0.02,0,0.039-0.002,0.059-0.003
		c4.905-0.002,9.734-0.221,14.489-0.645L243.253,441.563z M370.685,310.123c-8.934,20.161-19.331,37.607-31.042,52.188
		C346.921,346.882,351,329.66,351,311.5c0-26.635-1.216-52.697-3.565-77.728c17.086-13.084,34.347-21.553,51.469-25.258
		C396.431,226.729,389.167,268.417,370.685,310.123z"/>
	<path d="M231.5,207c4.142,0,7.5-3.357,7.5-7.5v-16c0-4.143-3.358-7.5-7.5-7.5s-7.5,3.357-7.5,7.5v16
		C224,203.643,227.358,207,231.5,207z"/>
	<path d="M271.5,207c4.142,0,7.5-3.357,7.5-7.5v-16c0-4.143-3.358-7.5-7.5-7.5s-7.5,3.357-7.5,7.5v16
		C264,203.643,267.358,207,271.5,207z"/>
	<path d="M191.5,207c4.142,0,7.5-3.357,7.5-7.5v-16c0-4.143-3.358-7.5-7.5-7.5s-7.5,3.357-7.5,7.5v16
		C184,203.643,187.358,207,191.5,207z"/>
	<path d="M159,199.5v-16c0-4.143-3.358-7.5-7.5-7.5s-7.5,3.357-7.5,7.5v16c0,4.143,3.358,7.5,7.5,7.5S159,203.643,159,199.5z"/>
	<path d="M311.5,207c4.142,0,7.5-3.357,7.5-7.5v-16c0-4.143-3.358-7.5-7.5-7.5s-7.5,3.357-7.5,7.5v16
		C304,203.643,307.358,207,311.5,207z"/>
	<path d="M231.5,303c4.142,0,7.5-3.357,7.5-7.5v-16c0-4.143-3.358-7.5-7.5-7.5s-7.5,3.357-7.5,7.5v16
		C224,299.643,227.358,303,231.5,303z"/>
	<path d="M271.5,303c4.142,0,7.5-3.357,7.5-7.5v-16c0-4.143-3.358-7.5-7.5-7.5s-7.5,3.357-7.5,7.5v16
		C264,299.643,267.358,303,271.5,303z"/>
	<path d="M311.5,303c4.142,0,7.5-3.357,7.5-7.5v-16c0-4.143-3.358-7.5-7.5-7.5s-7.5,3.357-7.5,7.5v16
		C304,299.643,307.358,303,311.5,303z"/>
	<path d="M271.5,399c4.142,0,7.5-3.357,7.5-7.5v-16c0-4.143-3.358-7.5-7.5-7.5s-7.5,3.357-7.5,7.5v16
		C264,395.643,267.358,399,271.5,399z"/>
	<path d="M231.5,111c4.142,0,7.5-3.357,7.5-7.5v-16c0-4.143-3.358-7.5-7.5-7.5s-7.5,3.357-7.5,7.5v16
		C224,107.643,227.358,111,231.5,111z"/>
	<path d="M271.5,111c4.142,0,7.5-3.357,7.5-7.5v-16c0-4.143-3.358-7.5-7.5-7.5s-7.5,3.357-7.5,7.5v16
		C264,107.643,267.358,111,271.5,111z"/>
	<path d="M191.5,111c4.142,0,7.5-3.357,7.5-7.5v-16c0-4.143-3.358-7.5-7.5-7.5s-7.5,3.357-7.5,7.5v16
		C184,107.643,187.358,111,191.5,111z"/>
	<path d="M247.5,159c4.142,0,7.5-3.357,7.5-7.5v-16c0-4.143-3.358-7.5-7.5-7.5s-7.5,3.357-7.5,7.5v16
		C240,155.643,243.358,159,247.5,159z"/>
	<path d="M287.5,159c4.142,0,7.5-3.357,7.5-7.5v-16c0-4.143-3.358-7.5-7.5-7.5s-7.5,3.357-7.5,7.5v16
		C280,155.643,283.358,159,287.5,159z"/>
	<path d="M207.5,159c4.142,0,7.5-3.357,7.5-7.5v-16c0-4.143-3.358-7.5-7.5-7.5s-7.5,3.357-7.5,7.5v16
		C200,155.643,203.358,159,207.5,159z"/>
	<path d="M167.5,159c4.142,0,7.5-3.357,7.5-7.5v-16c0-4.143-3.358-7.5-7.5-7.5s-7.5,3.357-7.5,7.5v16
		C160,155.643,163.358,159,167.5,159z"/>
	<path d="M247.5,255c4.142,0,7.5-3.357,7.5-7.5v-16c0-4.143-3.358-7.5-7.5-7.5s-7.5,3.357-7.5,7.5v16
		C240,251.643,243.358,255,247.5,255z"/>
	<path d="M287.5,255c4.142,0,7.5-3.357,7.5-7.5v-16c0-4.143-3.358-7.5-7.5-7.5s-7.5,3.357-7.5,7.5v16
		C280,251.643,283.358,255,287.5,255z"/>
	<path d="M207.5,255c4.142,0,7.5-3.357,7.5-7.5v-16c0-4.143-3.358-7.5-7.5-7.5s-7.5,3.357-7.5,7.5v16
		C200,251.643,203.358,255,207.5,255z"/>
	<path d="M167.5,255c4.142,0,7.5-3.357,7.5-7.5v-16c0-4.143-3.358-7.5-7.5-7.5s-7.5,3.357-7.5,7.5v16
		C160,251.643,163.358,255,167.5,255z"/>
	<path d="M247.5,351c4.142,0,7.5-3.357,7.5-7.5v-16c0-4.143-3.358-7.5-7.5-7.5s-7.5,3.357-7.5,7.5v16
		C240,347.643,243.358,351,247.5,351z"/>
	<path d="M287.5,351c4.142,0,7.5-3.357,7.5-7.5v-16c0-4.143-3.358-7.5-7.5-7.5s-7.5,3.357-7.5,7.5v16
		C280,347.643,283.358,351,287.5,351z"/>
	<path d="M247.5,63c4.142,0,7.5-3.357,7.5-7.5v-16c0-4.143-3.358-7.5-7.5-7.5s-7.5,3.357-7.5,7.5v16C240,59.643,243.358,63,247.5,63
		z"/>
	<path d="M207.5,63c4.142,0,7.5-3.357,7.5-7.5v-16c0-4.143-3.358-7.5-7.5-7.5s-7.5,3.357-7.5,7.5v16C200,59.643,203.358,63,207.5,63
		z"/>
	<path d="M118.189,266.364c-1.881-3.689-6.399-5.152-10.089-3.274c-3.69,1.883-5.155,6.399-3.273,10.089
		c2.618,5.134,5.421,10.86,8.568,17.505c1.282,2.707,3.975,4.292,6.783,4.292c1.076,0,2.169-0.232,3.206-0.724
		c3.743-1.773,5.341-6.245,3.568-9.988C123.741,277.484,120.874,271.629,118.189,266.364z"/>
</g>
<g>
</g>
<g>
</g>
<g>
</g>
<g>
</g>
<g>
</g>
<g>
</g>
<g>
</g>
<g>
</g>
<g>
</g>
<g>
</g>
<g>
</g>
<g>
</g>
<g>
</g>
<g>
</g>
<g>
</g>
</svg>
