<?xml version="1.0" encoding="utf-8"?>
<!-- Generator: Adobe Illustrator 21.0.0, SVG Export Plug-In . SVG Version: 6.00 Build 0)  -->
<svg version="1.1" id="Capa_1" xmlns="http://www.w3.org/2000/svg" xmlns:xlink="http://www.w3.org/1999/xlink" x="0px" y="0px"
	 viewBox="0 0 235.5 235.5" style="enable-background:new 0 0 235.5 235.5;" xml:space="preserve">
<style type="text/css">
	.st0{fill:#042540;}
</style>
<g>
	<path class="st0" d="M118.1,235.5c7.9,0,14.3-6,14.3-13.5c0-7.4,0-13.5,0-13.5c39.1-3.6,64.9-24.2,64.9-57.8v-0.5
		c0.2-7.1-0.8-17.4-6.7-27.4c-11.5-19.5-36.7-29.8-64.3-26.5c-0.2-13.9-0.4-27.8-0.7-41.7c5.2-0.1,11.8,0.5,19,2.7
		c2.2,0.7,4.2,1.4,6.1,2.2c0,0,22.7,7,29-3.2c6.2-10.2,2.9-24.5-8.7-29.7c-11.5-5.2-24.1-8.7-38.1-10.2V8.3c0-4.6-6.4-8.3-14.3-8.3
		s-14.3,3.5-14.3,7.8s0,7.8,0,7.8c-42.1,3-65.8,25.6-65.8,58.1v0.6c0,7.1,1.1,16.9,6.5,26.7c11,19.9,35,31.2,62,30.3
		c-0.3,12.8-0.5,25.7-0.8,38.5c-13.9-4.5-25.7-6.4-34.3-7.3c-17.7-1.8-22.3,0.7-24.8,3.3c-4.3,4.4-4.7,11.5-3.8,15.8
		c3.1,13.9,27.1,23.2,59.2,24.5c0.4,5.3,0.7,10.5,1.1,15.8C103.8,229.4,110.2,235.5,118.1,235.5z M131.3,130.7c15.4-3,28.7,2,32,9.8
		c0.9,2.1,2.1,7,1.2,12.7c-0.6,3.4-1.7,6-2.7,7.7c-1.4,2.3-3.5,5.1-6.7,7.5c-10,7.6-22.4,5-24.7,4.4
		C130.8,158.7,131.1,144.7,131.3,130.7z M79.5,74c-0.3-1.5-0.7-3-1-4.5c0.5-3.5,1.7-5.9,2.8-7.5c6.8-10.5,22.4-9.4,23.4-9.3
		c0.2,14.7,0.4,29.4,0.6,44.1c-1.8-0.1-16.1-1.5-22.8-13C80.5,80.2,79.7,76.7,79.5,74z"/>
</g>
</svg>
