<svg height="512pt" viewBox="-26 0 512 512.001" width="512pt" xmlns="http://www.w3.org/2000/svg"><path d="m453.398438 282.738281c-4.152344 0-7.515626 3.363281-7.515626 7.515625v186.722656c0 7.84375-4.546874 14.625-11.136718 17.898438l-119.3125-184.78125c-.214844-.332031-.445313-.648438-.664063-.976562l131.113281-130.375v76.78125c0 4.148437 3.363282 7.511718 7.515626 7.511718 4.148437 0 7.511718-3.363281 7.511718-7.511718 0 0-.074218-95.875-.105468-96.050782-.011719-.078125-.019532-.160156-.035157-.234375-.722656-3.707031-4.179687-5.535156-6.972656-7.5625-2.039063-1.480469-4.078125-2.957031-6.113281-4.4375-11.246094-8.167969-22.492188-16.332031-33.738282-24.5-6.738281-4.890625-13.476562-9.785156-20.210937-14.675781v-32.109375c0-8.394531-6.832031-15.226563-15.226563-15.226563h-49.960937l-73.824219-53.609374c-.152344-.109376-.308594-.210938-.464844-.308594-14.679687-9.078125-32.914062-9.078125-47.59375 0-.15625.097656-.3125.199218-.460937.308594l-73.828125 53.609374h-49.960938c-8.394531 0-15.222656 6.832032-15.222656 15.226563v32.109375c-6.027344 4.375-12.050781 8.75-18.078125 13.125-10.734375 7.796875-21.464843 15.589844-32.199219 23.386719-3.539062 2.570312-7.078124 5.140625-10.617187 7.707031-.890625.648438-1.796875 1.273438-2.671875 1.941406-4.066406 3.101563-3.609375 7.089844-3.609375 11.472656v17.296876 278.191406 13.726562 2.070313c0 15.496093 10.121094 28.664062 24.097656 33.265625 1.328125 1.109375 3.019531 1.753906 4.808594 1.753906h403.082031c1.789063 0 3.480469-.644531 4.808594-1.753906 13.976562-4.601563 24.097656-17.769532 24.097656-33.265625v-186.726563c0-4.152344-3.363281-7.515625-7.511718-7.515625zm-59.664063-156.105469 48.105469 34.933594-48.105469 47.835938zm-311.542969-50.683593c0-.125.101563-.222657.226563-.222657h163.40625c4.144531 0 7.5-3.359374 7.5-7.5 0-4.140624-3.355469-7.5-7.5-7.5h-87.871094l56.84375-41.277343c9.6875-5.878907 21.644531-5.878907 31.332031 0l56.847656 41.277343h-22.082031c-4.144531 0-7.5 3.359376-7.5 7.5 0 4.140626 3.355469 7.5 7.5 7.5h97.617188c.125 0 .222656.097657.222656.222657v148.371093l-123.34375 122.652344c-13.746094 13.667969-36.109375 13.667969-49.855469 0l-123.34375-122.652344zm-15 50.683593v82.769532l-48.105468-47.835938zm-41.011718 368.242188c-6.585938-3.273438-11.136719-10.054688-11.136719-17.898438v-298.238281l131.113281 130.378907c-.21875.328124-.449219.644531-.664062.976562zm16.539062 2.09375 114.3125-177.035156 37.90625 37.695312c2.207031 2.191406 4.574219 4.125 7.054688 5.824219.242187.164063.480468.339844.726562.5.214844.144531.4375.277344.652344.414063 8.023437 5.136718 17.34375 7.902343 27.089844 7.902343 9.769531 0 19.113281-2.777343 27.140624-7.933593.199219-.125.402344-.246094.597657-.375.261719-.175782.511719-.359376.769531-.535157 2.46875-1.691406 4.824219-3.617187 7.019531-5.796875l37.90625-37.699218 114.3125 177.039062zm0 0"/><path d="m133.648438 125.976562h27.039062c4.140625 0 7.5-3.355468 7.5-7.5 0-4.140624-3.359375-7.5-7.5-7.5h-27.039062c-4.144532 0-7.5 3.359376-7.5 7.5 0 4.144532 3.355468 7.5 7.5 7.5zm0 0"/><path d="m193.335938 125.976562h74.121093c4.144531 0 7.5-3.355468 7.5-7.5 0-4.140624-3.355469-7.5-7.5-7.5h-74.121093c-4.140626 0-7.5 3.359376-7.5 7.5 0 4.144532 3.359374 7.5 7.5 7.5zm0 0"/><path d="m133.648438 171.117188h193.632812c4.140625 0 7.5-3.355469 7.5-7.5 0-4.140626-3.359375-7.5-7.5-7.5h-193.632812c-4.144532 0-7.5 3.359374-7.5 7.5 0 4.144531 3.355468 7.5 7.5 7.5zm0 0"/><path d="m133.648438 204.820312h193.632812c4.140625 0 7.5-3.355468 7.5-7.5 0-4.140624-3.359375-7.5-7.5-7.5h-193.632812c-4.144532 0-7.5 3.359376-7.5 7.5 0 4.144532 3.355468 7.5 7.5 7.5zm0 0"/><path d="m261.378906 231.023438c0-4.144532-3.355468-7.5-7.5-7.5h-120.230468c-4.144532 0-7.5 3.355468-7.5 7.5 0 4.140624 3.355468 7.5 7.5 7.5h120.230468c4.144532 0 7.5-3.359376 7.5-7.5zm0 0"/></svg>