<?xml version="1.0" encoding="iso-8859-1"?>
<!-- Generator: Adobe Illustrator 19.0.0, SVG Export Plug-In . SVG Version: 6.00 Build 0)  -->
<svg version="1.1" id="Layer_1" xmlns="http://www.w3.org/2000/svg" xmlns:xlink="http://www.w3.org/1999/xlink" x="0px" y="0px"
	 viewBox="0 0 511.996 511.996" style="enable-background:new 0 0 511.996 511.996;" xml:space="preserve">
<g>
	<g>
		<path d="M286.359,252.517c12.72-9.356,20.994-24.42,20.994-41.386v-37.729c0-28.318-23.038-51.356-51.356-51.356
			c-0.01,0-0.02,0.001-0.03,0.001s-0.02-0.001-0.03-0.001c-28.328,0-51.374,23.047-51.374,51.375l0.078,37.71
			c0,16.965,8.274,32.029,20.994,41.386c-39.489,13.106-68.892,49.712-68.892,91.088v28.718c0,4.15,3.362,7.512,7.512,7.512h35.299
			c4.15,0,7.512-3.362,7.512-7.512s-3.362-7.512-7.512-7.512h-27.787v-21.206c0-21.087,9.014-41.263,25.38-56.813
			c9.394-8.925,20.685-15.651,32.748-19.762l7.633,14.831l-11.594,50.327c-0.608,2.638,0.251,5.401,2.249,7.228l22.743,20.815
			c1.435,1.314,3.253,1.971,5.071,1.971c1.819,0,3.637-0.657,5.071-1.971l22.742-20.815c1.997-1.828,2.857-4.589,2.249-7.228
			l-11.594-50.327l7.633-14.831c12.062,4.111,23.355,10.836,32.748,19.762c16.366,15.549,25.38,35.726,25.38,56.813v21.206H224.595
			c-4.15,0-7.512,3.362-7.512,7.512s3.362,7.512,7.512,7.512h123.145c4.15,0,7.512-3.362,7.512-7.512v-28.718
			C355.252,302.229,325.847,265.623,286.359,252.517z M219.666,173.402L219.666,173.402c0-20.023,16.282-36.315,36.302-36.332
			c20.029,0.017,36.32,16.316,36.32,36.35v10.298c-14.553-4.167-20.606-19.263-20.884-19.975c-1.043-2.749-3.58-4.663-6.515-4.858
			c-2.935-0.178-5.699,1.316-7.095,3.904c-0.461,0.825-10.79,18.717-38.128,21.599V173.402z M255.997,344.507l-14.438-13.214
			l9.885-42.912h9.106l9.885,42.912L255.997,344.507z M244.9,263.353c2.217-0.335,4.442-0.59,6.673-0.744
			c0.259-0.018,0.519-0.036,0.777-0.051c0.839-0.05,1.679-0.076,2.519-0.1c0.376,0.008,0.748,0.029,1.127,0.029h0.001
			c0.378,0,0.75-0.02,1.126-0.029c0.84,0.024,1.68,0.05,2.519,0.1c0.259,0.015,0.518,0.033,0.777,0.051
			c2.232,0.155,4.457,0.41,6.675,0.745l-5.148,10.001h-11.897L244.9,263.353z M257.47,247.425c-0.457-0.012-0.912-0.03-1.37-0.036
			c-0.068-0.002-0.137-0.002-0.205,0c-0.458,0.006-0.913,0.023-1.37,0.036c-19.352-0.776-34.858-16.755-34.858-36.295v-11.649
			c22.099-1.89,35.983-11.806,43.659-19.64c5.37,7.591,14.653,16.808,29.005,19.303v11.986
			C292.329,230.671,276.822,246.649,257.47,247.425z"/>
	</g>
</g>
<g>
	<g>
		<path d="M305.057,46.178l-44.906-44.03c-2.159-2.116-5.379-2.733-8.168-1.563c-2.789,1.172-4.603,3.901-4.603,6.926v13.174
			C187.62,22.828,131.759,47.191,89.369,89.767c-44.168,44.363-68.493,103.272-68.493,165.874
			c0,85.286,46.351,164.059,120.966,205.578c1.127,0.627,2.386,0.948,3.652,0.948c0.711,0,1.425-0.101,2.119-0.305
			c1.933-0.568,3.557-1.89,4.505-3.666l23.005-43.044c1.928-3.602,0.619-8.085-2.943-10.088
			c-53.966-30.339-87.491-87.594-87.491-149.422c0-48.576,20.751-95.056,56.929-127.523c3.088-2.771,3.345-7.521,0.574-10.608
			c-2.771-3.088-7.521-3.346-10.608-0.574c-39.351,35.313-61.919,85.869-61.919,138.705c0,64.795,33.843,124.967,88.81,158.786
			l-15.944,29.831C76.562,404.503,35.901,332.93,35.901,255.642c0-58.603,22.77-113.747,64.116-155.274
			c41.331-41.512,96.347-64.529,154.912-64.808c4.135-0.02,7.476-3.378,7.476-7.512v-2.649l26.664,26.144l-26.664,26.144v-0.848
			c0-2-0.798-3.917-2.217-5.328c-1.407-1.399-3.312-2.185-5.296-2.185c-0.015,0-0.03,0-0.046,0
			c-37.157,0.225-72.976,11.358-103.586,32.196c-3.43,2.335-4.317,7.008-1.983,10.438c2.336,3.43,7.008,4.317,10.438,1.982
			c26.052-17.736,56.218-27.822,87.665-29.381v11.012c0,3.025,1.814,5.754,4.603,6.926c2.787,1.17,6.008,0.556,8.168-1.563
			l44.906-44.031c1.441-1.413,2.253-3.346,2.253-5.364C307.31,49.524,306.499,47.592,305.057,46.178z"/>
	</g>
</g>
<g>
	<g>
		<path d="M459.752,138.246c-19.902-34.467-48.446-63.55-82.546-84.105c-1.766-1.065-3.889-1.356-5.872-0.809
			c-1.985,0.547-3.66,1.885-4.63,3.701l-23.043,43.114c-1.866,3.491-0.703,7.83,2.657,9.92
			c24.298,15.108,44.606,36.232,58.73,61.085c14.56,25.62,22.256,54.837,22.256,84.488c0,24.198-4.943,47.585-14.691,69.509
			c-1.686,3.791,0.021,8.231,3.813,9.916c3.79,1.686,8.229-0.021,9.916-3.813c10.607-23.859,15.986-49.3,15.986-75.613
			c0-32.25-8.374-64.033-24.218-91.912c-14.197-24.982-34.142-46.5-57.947-62.587l15.994-29.923
			c28.969,18.921,53.271,44.555,70.585,74.54c19.202,33.254,29.352,71.251,29.352,109.882c0,58.138-22.462,112.966-63.247,154.386
			c-40.738,41.37-95.119,64.685-153.124,65.648c-4.1,0.068-7.387,3.411-7.387,7.511v3.415l-26.664-26.145l26.664-26.145v0.08
			c0,2.02,0.814,3.954,2.257,5.368c1.443,1.412,3.404,2.183,5.414,2.142c31.973-0.676,63.358-9.607,90.766-25.824
			c26.626-15.755,49.122-38.102,65.057-64.62c2.137-3.557,0.986-8.171-2.569-10.309c-3.559-2.136-8.171-0.986-10.309,2.569
			c-14.655,24.389-35.343,44.939-59.83,59.429c-22.992,13.605-49.037,21.63-75.761,23.398v-10.12c0-3.026-1.814-5.754-4.603-6.926
			c-2.787-1.17-6.008-0.557-8.168,1.563l-44.907,44.031c-1.44,1.413-2.253,3.346-2.253,5.364c0,2.018,0.812,3.95,2.253,5.364
			l44.907,44.031c1.433,1.404,3.331,2.148,5.261,2.148c0.979,0,1.968-0.191,2.907-0.586c2.789-1.172,4.603-3.901,4.603-6.926
			v-14.027c59.186-2.81,114.409-27.46,156.192-69.892c43.571-44.248,67.567-102.82,67.567-164.927
			C491.117,214.376,480.271,173.78,459.752,138.246z"/>
	</g>
</g>
<g>
</g>
<g>
</g>
<g>
</g>
<g>
</g>
<g>
</g>
<g>
</g>
<g>
</g>
<g>
</g>
<g>
</g>
<g>
</g>
<g>
</g>
<g>
</g>
<g>
</g>
<g>
</g>
<g>
</g>
</svg>
