<svg xmlns="http://www.w3.org/2000/svg" width="72" height="52" viewBox="0 0 72 52">
  <metadata><?xpacket begin="﻿" id="W5M0MpCehiHzreSzNTczkc9d"?>
<x:xmpmeta xmlns:x="adobe:ns:meta/" x:xmptk="Adobe XMP Core 5.6-c138 79.159824, 2016/09/14-01:09:01        ">
   <rdf:RDF xmlns:rdf="http://www.w3.org/1999/02/22-rdf-syntax-ns#">
      <rdf:Description rdf:about=""/>
   </rdf:RDF>
</x:xmpmeta>
                                                                                                    
                                                                                                    
                                                                                                    
                                                                                                    
                                                                                                    
                                                                                                    
                                                                                                    
                                                                                                    
                                                                                                    
                                                                                                    
                                                                                                    
                                                                                                    
                                                                                                    
                                                                                                    
                                                                                                    
                                                                                                    
                                                                                                    
                                                                                                    
                                                                                                    
                                                                                                    
                           
<?xpacket end="w"?></metadata>
<defs>
    <style>
      .cls-1 {
        fill: #25bc98;
        fill-rule: evenodd;
      }
    </style>
  </defs>
  <path id="Фигура_42" data-name="Фигура 42" class="cls-1" d="M1083.52,1764.41c-2.45-1.21-7.04-1.22-7.23-1.22a1.035,1.035,0,1,0,0,2.07c1.18,0,4.62.18,6.29,1a0.984,0.984,0,0,0,.47.11,1.071,1.071,0,0,0,.95-0.57A1.023,1.023,0,0,0,1083.52,1764.41Zm5.26,14.77-4.35-1.23a0.426,0.426,0,0,1-.32-0.41v-1.43a8.532,8.532,0,0,0,1.01-.81,7.6,7.6,0,0,0,2.37-5.53v-1.97l0.42-.83a6.567,6.567,0,0,0,.71-2.94v-5.35a1.05,1.05,0,0,0-1.06-1.04h-10.15a6.65,6.65,0,0,0-6.69,6.59v0.06a5.4,5.4,0,0,0,.59,2.45l0.54,1.06v1.69a8.049,8.049,0,0,0,3.38,6.55v1.5c0,0.23,0,.33-0.87.57l-2.12.6-6.15-2.2a1.05,1.05,0,0,0-.29-0.8l-1.97-2.03v-3.41c0.21-.16.42-0.34,0.62-0.52a12.1,12.1,0,0,0,3.9-8.85v-2.72a11.989,11.989,0,0,0,1.12-5.05v-11.09a1.048,1.048,0,0,0-1.05-1.04h-15.79a10.009,10.009,0,0,0-10.08,9.91v2.22a11.85,11.85,0,0,0,1.13,5.05v2.34a12.565,12.565,0,0,0,4.51,9.67v3.49l-1.96,2.03a1.05,1.05,0,0,0-.29.8l-6.49,2.32a5.7,5.7,0,0,0-1.3.67l-1.02-.5a8.061,8.061,0,0,0,4.04-3.22,1,1,0,0,0,0-.92c-0.76-1.5-.85-4.24-0.93-6.45-0.02-.73-0.05-1.42-0.09-2.04a8.948,8.948,0,0,0-17.89,0c-0.05.62-.07,1.31-0.1,2.05-0.07,2.2-.16,4.94-0.92,6.44a1,1,0,0,0,0,.92,7.94,7.94,0,0,0,4.04,3.22l-2.83,1.39a4.331,4.331,0,0,0-2.45,3.9v7.67a1.055,1.055,0,0,0,2.11,0v-7.67a2.257,2.257,0,0,1,1.29-2.04l3.52-1.74,1.23,1.15a4.489,4.489,0,0,0,6.11,0l1.23-1.15,1.15,0.57a5.313,5.313,0,0,0-.85,2.89v7.99a1.055,1.055,0,0,0,2.11,0v-7.99a3.411,3.411,0,0,1,2.27-3.19l6.84-2.45,2.85,4.21a2.2,2.2,0,0,0,1.6.94,1.7,1.7,0,0,0,.22.01,2.162,2.162,0,0,0,1.54-.63l1.74-1.71v10.81a1.055,1.055,0,0,0,2.11,0v-10.81l1.74,1.71a2.162,2.162,0,0,0,1.54.63,1.477,1.477,0,0,0,.21-0.01,2.164,2.164,0,0,0,1.6-.94l2.85-4.21,6.85,2.45a3.411,3.411,0,0,1,2.27,3.19v7.99a1.055,1.055,0,0,0,2.11,0v-7.99a5.416,5.416,0,0,0-1.56-3.79l0.26-.07a7.014,7.014,0,0,0,.98-0.35l2.69,2.65v9.55a1.055,1.055,0,0,0,2.11,0v-9.55l2.68-2.63a2.2,2.2,0,0,0,.45.17l4.35,1.22a2.307,2.307,0,0,1,1.69,2.21v8.58a1.055,1.055,0,0,0,2.11,0v-8.58A4.39,4.39,0,0,0,1088.78,1779.18Zm-62.02-1.83a7.564,7.564,0,0,1-3.38-2.14,11.351,11.351,0,0,0,.6-2.49,7.725,7.725,0,0,0,2.78,3.38v1.25Zm6.05,2.8a2.339,2.339,0,0,1-3.21,0l-0.98-.91a2.2,2.2,0,0,0,.25-1.02v-1.1a7.931,7.931,0,0,0,4.66,0v1.1a2.09,2.09,0,0,0,.26,1.02Zm-1.61-4.76a5.67,5.67,0,0,1-5.71-5.62,1.039,1.039,0,0,0-1.05-1.03,1.087,1.087,0,0,0-.18.01,2.437,2.437,0,0,0,.01-0.27c0.03-.71.05-1.38,0.09-1.96a7.675,7.675,0,0,1,2.13-4.84,6.639,6.639,0,0,1,9.42,0,7.685,7.685,0,0,1,2.14,4.84c0.04,0.58.06,1.25,0.08,1.96a1.21,1.21,0,0,1,.01.19,9.51,9.51,0,0,0-5.21-3.75,13.735,13.735,0,0,0-4.01-.62,1.047,1.047,0,0,0-.73.32l-1.9,1.94a1.012,1.012,0,0,0,.02,1.46,1.065,1.065,0,0,0,1.49-.02l1.59-1.62c1.36,0.07,5.75.57,7.45,4.27A5.653,5.653,0,0,1,1031.2,1775.39Zm4.44,1.96v-1.24a7.747,7.747,0,0,0,2.79-3.38,10.85,10.85,0,0,0,.6,2.48A7.708,7.708,0,0,1,1035.64,1777.35Zm10.15-16.83v-2.58a1.178,1.178,0,0,0-.1-0.45,9.8,9.8,0,0,1-1.03-4.36v-2.21a7.913,7.913,0,0,1,7.97-7.84h14.73v10.05a9.791,9.791,0,0,1-1.02,4.36,1.018,1.018,0,0,0-.1.45v2.96a9.889,9.889,0,0,1-3.24,7.34,10.277,10.277,0,0,1-.81.67c0,0.01-.01.01-0.02,0.01a10.231,10.231,0,0,1-6.84,2.01A10.337,10.337,0,0,1,1045.79,1760.52Zm5.94,20.87a0.068,0.068,0,0,1-.06.03,0.071,0.071,0,0,1-.05-0.04l-3.28-4.84,1.05-1.09,4.98,3.35Zm4.28-4-5.71-3.84v-1.94a11.926,11.926,0,0,0,4.89,1.39c0.28,0.02.56,0.03,0.83,0.03a12.553,12.553,0,0,0,5.71-1.37v1.89Zm4.4,3.99a0.108,0.108,0,0,1-.05.04,0.088,0.088,0,0,1-.06-0.02l-2.64-2.6,4.97-3.35,1.06,1.09Zm19.26-.87-2.39-2.36a2.867,2.867,0,0,0,.06-0.61v-0.44a7.7,7.7,0,0,0,2.09.36,1.927,1.927,0,0,0,.24.01,7.922,7.922,0,0,0,2.33-.35v0.42a2.4,2.4,0,0,0,.07.6Zm3.98-6.7a5.752,5.752,0,0,1-4.16,1.58,5.85,5.85,0,0,1-5.53-5.9v-1.94a1.072,1.072,0,0,0-.11-0.46l-0.66-1.28a3.5,3.5,0,0,1-.36-1.52v-0.06a4.552,4.552,0,0,1,4.58-4.51h9.1v4.31a4.539,4.539,0,0,1-.48,2.01l-0.54,1.05a1.072,1.072,0,0,0-.11.46v2.22A5.528,5.528,0,0,1,1083.65,1773.81Zm2.79,10.46a1.042,1.042,0,0,0-1.06,1.03v6.66a1.055,1.055,0,0,0,2.11,0v-6.66A1.039,1.039,0,0,0,1086.44,1784.27Zm-60.88,1.37a1.039,1.039,0,0,0-1.05,1.03v5.29a1.055,1.055,0,0,0,2.11,0v-5.29A1.042,1.042,0,0,0,1025.56,1785.64Zm39.09-32.13c-3.99-3.92-12.33-3.17-15.74-2.67a2.142,2.142,0,0,0-1.85,2.12v2.39a1.055,1.055,0,0,0,2.11,0v-2.39a0.086,0.086,0,0,1,.06-0.07,34.221,34.221,0,0,1,6.85-.33c3.29,0.22,5.67,1.03,7.08,2.42a1.075,1.075,0,0,0,1.49,0A1.015,1.015,0,0,0,1064.65,1753.51Zm-21.04,32.97a1.056,1.056,0,0,0-1.06,1.04v4.44a1.055,1.055,0,0,0,2.11,0v-4.44A1.048,1.048,0,0,0,1043.61,1786.48Zm24.81,0a1.056,1.056,0,0,0-1.06,1.04v4.44a1.055,1.055,0,0,0,2.11,0v-4.44A1.048,1.048,0,0,0,1068.42,1786.48Z" transform="translate(-1020 -1741)"/>
</svg>
