<?xml version="1.0" encoding="utf-8"?>
<!-- Generator: Adobe Illustrator 21.0.0, SVG Export Plug-In . SVG Version: 6.00 Build 0)  -->
<svg version="1.1" id="Слой_1" xmlns="http://www.w3.org/2000/svg" xmlns:xlink="http://www.w3.org/1999/xlink" x="0px" y="0px"
	 viewBox="0 0 30 30" style="enable-background:new 0 0 30 30;" xml:space="preserve">
<path id="Фигура_42" d="M26.3,13.4c-1-0.5-2.9-0.5-3-0.5c-0.2,0-0.4,0.2-0.4,0.4c0,0.2,0.2,0.4,0.4,0.4c0,0,0,0,0,0
	c0.5,0,1.9,0.1,2.6,0.4c0.1,0,0.1,0,0.2,0c0.2,0,0.3-0.1,0.4-0.2C26.6,13.8,26.5,13.5,26.3,13.4C26.3,13.4,26.3,13.4,26.3,13.4z
	 M28.5,19.5L26.7,19c-0.1,0-0.1-0.1-0.1-0.2v-0.6c0.1-0.1,0.3-0.2,0.4-0.3c0.6-0.6,1-1.4,1-2.3v-0.8l0.2-0.3
	c0.2-0.4,0.3-0.8,0.3-1.2v-2.2c0-0.2-0.2-0.4-0.4-0.4c0,0,0,0,0,0h-4.2c-1.5,0-2.7,1.2-2.7,2.7v0c0,0.3,0.1,0.7,0.2,1l0.2,0.4v0.7
	c0,1.1,0.5,2.1,1.4,2.7v0.6c0,0.1,0,0.1-0.4,0.2l-0.9,0.2l-2.5-0.9c0-0.1,0-0.2-0.1-0.3l-0.8-0.8v-1.4c0.1-0.1,0.2-0.1,0.3-0.2
	c1-0.9,1.6-2.2,1.6-3.6v-1.1c0.3-0.6,0.5-1.4,0.5-2.1V4.3c0-0.2-0.2-0.4-0.4-0.4h-6.5c-2.3,0-4.1,1.8-4.1,4.1v0.9
	c0,0.7,0.2,1.4,0.5,2.1v1c0,1.5,0.7,3,1.8,4v1.4L11,18c-0.1,0.1-0.1,0.2-0.1,0.3l-2.7,0.9c-0.2,0.1-0.4,0.2-0.5,0.3l-0.4-0.2
	C8,19.1,8.6,18.7,9,18.1C9,18,9,17.8,9,17.7c-0.3-0.6-0.3-1.7-0.4-2.6c0-0.3,0-0.6,0-0.8c-0.1-2-1.7-3.6-3.8-3.6
	c-1.9,0.1-3.5,1.6-3.6,3.6c0,0.3,0,0.5,0,0.8c0,0.9-0.1,2-0.4,2.6c-0.1,0.1-0.1,0.3,0,0.4c0.4,0.6,1,1.1,1.7,1.3L1.3,20
	c-0.6,0.3-1,0.9-1,1.6v3.1c0,0.2,0.2,0.4,0.4,0.4c0.2,0,0.4-0.2,0.4-0.4v-3.1c0-0.4,0.2-0.7,0.5-0.8L3.1,20l0.5,0.5
	c0.7,0.7,1.8,0.7,2.5,0L6.6,20l0.5,0.2c-0.2,0.4-0.3,0.8-0.3,1.2v3.3c0,0.2,0.2,0.4,0.4,0.4c0.2,0,0.4-0.2,0.4-0.4v-3.3
	c0-0.6,0.4-1.1,0.9-1.3l2.8-1l1.2,1.7c0.2,0.2,0.4,0.4,0.7,0.4c0,0,0.1,0,0.1,0c0.2,0,0.5-0.1,0.6-0.3l0.7-0.7v4.4
	c0,0.2,0.2,0.4,0.4,0.4c0.2,0,0.4-0.2,0.4-0.4v-4.4l0.7,0.7c0.2,0.2,0.4,0.3,0.6,0.3c0,0,0.1,0,0.1,0c0.3,0,0.5-0.2,0.7-0.4l1.2-1.7
	l2.8,1c0.6,0.2,0.9,0.7,0.9,1.3v3.3c0,0.2,0.2,0.4,0.4,0.4c0.2,0,0.4-0.2,0.4-0.4v-3.3c0-0.6-0.2-1.1-0.6-1.6l0.1,0
	c0.1,0,0.3-0.1,0.4-0.1l1.1,1.1v3.9c0,0.2,0.2,0.4,0.4,0.4c0.2,0,0.4-0.2,0.4-0.4v-3.9l1.1-1.1c0.1,0,0.1,0.1,0.2,0.1l1.8,0.5
	c0.4,0.1,0.7,0.5,0.7,0.9v3.5c0,0.2,0.2,0.4,0.4,0.4c0.2,0,0.4-0.2,0.4-0.4v-3.5C29.8,20.4,29.2,19.7,28.5,19.5z M3.1,18.7
	c-0.5-0.2-1-0.5-1.4-0.9c0.1-0.3,0.2-0.7,0.2-1c0.2,0.6,0.6,1,1.1,1.4V18.7z M5.5,19.9c-0.4,0.3-0.9,0.3-1.3,0l-0.4-0.4
	c0.1-0.1,0.1-0.3,0.1-0.4v-0.5c0.6,0.2,1.3,0.2,1.9,0v0.5c0,0.1,0,0.3,0.1,0.4L5.5,19.9z M4.9,17.9c-1.3,0-2.3-1-2.3-2.3
	c0-0.2-0.2-0.4-0.4-0.4c0,0,0,0,0,0c0,0,0,0-0.1,0c0,0,0-0.1,0-0.1c0-0.3,0-0.6,0-0.8c0-0.7,0.4-1.4,0.9-2c1.1-1.1,2.8-1.1,3.8,0
	c0,0,0,0,0,0c0.5,0.5,0.8,1.2,0.9,2c0,0.2,0,0.5,0,0.8c0,0,0,0.1,0,0.1c-0.5-0.7-1.3-1.3-2.1-1.5c-0.5-0.2-1.1-0.3-1.6-0.3
	c-0.1,0-0.2,0-0.3,0.1l-0.8,0.8c-0.2,0.2-0.2,0.4,0,0.6c0,0,0,0,0,0c0.2,0.2,0.4,0.2,0.6,0l0.7-0.7c0.6,0,2.4,0.2,3.1,1.7
	C7,17.1,6,17.9,4.9,17.9L4.9,17.9z M6.7,18.7v-0.5c0.5-0.3,0.9-0.8,1.1-1.4c0,0.3,0.1,0.7,0.2,1C7.7,18.2,7.2,18.6,6.7,18.7
	L6.7,18.7z M10.9,11.8v-1.1c0-0.1,0-0.1,0-0.2c-0.3-0.6-0.4-1.2-0.4-1.8V7.9c0-1.8,1.5-3.2,3.3-3.2h6v4.1c0,0.6-0.1,1.2-0.4,1.8
	c0,0.1,0,0.1,0,0.2V12c0,1.1-0.5,2.2-1.3,3c-0.1,0.1-0.2,0.2-0.3,0.3c0,0,0,0,0,0c-0.8,0.6-1.8,0.9-2.8,0.8
	C12.5,15.9,10.8,14.1,10.9,11.8L10.9,11.8z M13.3,20.4C13.3,20.4,13.3,20.4,13.3,20.4C13.3,20.4,13.2,20.4,13.3,20.4l-1.4-2l0.4-0.4
	l2,1.4L13.3,20.4z M15,18.7l-2.3-1.6v-0.8c0.6,0.3,1.3,0.5,2,0.6c0.1,0,0.2,0,0.3,0c0.8,0,1.6-0.2,2.3-0.6v0.8L15,18.7z M16.8,20.4
	C16.8,20.4,16.8,20.4,16.8,20.4C16.8,20.4,16.8,20.4,16.8,20.4l-1.1-1.1l2-1.4l0.4,0.4L16.8,20.4z M24.7,20l-1-1c0-0.1,0-0.2,0-0.2
	v-0.2c0.3,0.1,0.6,0.1,0.9,0.1c0,0,0.1,0,0.1,0c0.3,0,0.6,0,1-0.1v0.2c0,0.1,0,0.2,0,0.2L24.7,20z M26.4,17.3
	c-0.5,0.4-1.1,0.7-1.7,0.6c-1.3-0.1-2.3-1.1-2.3-2.4v-0.8c0-0.1,0-0.1,0-0.2L22.1,14c-0.1-0.2-0.1-0.4-0.1-0.6v0
	c0-1,0.8-1.9,1.9-1.8h3.7v1.8c0,0.3-0.1,0.6-0.2,0.8l-0.2,0.4c0,0.1,0,0.1,0,0.2v0.9C27.1,16.2,26.8,16.8,26.4,17.3L26.4,17.3z
	 M27.5,21.5c-0.2,0-0.4,0.2-0.4,0.4c0,0,0,0,0,0v2.7c0,0.2,0.2,0.4,0.4,0.4c0.2,0,0.4-0.2,0.4-0.4V22C27.9,21.7,27.7,21.5,27.5,21.5
	C27.5,21.5,27.5,21.5,27.5,21.5L27.5,21.5z M2.6,22.1c-0.2,0-0.4,0.2-0.4,0.4c0,0,0,0,0,0v2.2c0,0.2,0.2,0.4,0.4,0.4
	c0.2,0,0.4-0.2,0.4-0.4v-2.2C3,22.3,2.8,22.1,2.6,22.1C2.6,22.1,2.6,22.1,2.6,22.1L2.6,22.1z M18.6,9c-1.6-1.6-5-1.3-6.4-1.1
	c-0.4,0.1-0.8,0.4-0.8,0.9v1c0,0.2,0.2,0.4,0.4,0.4c0.2,0,0.4-0.2,0.4-0.4v-1c0,0,0,0,0,0c0.9-0.1,1.9-0.2,2.8-0.1
	c1.3,0.1,2.3,0.4,2.9,1c0.2,0.2,0.4,0.2,0.6,0C18.7,9.4,18.7,9.1,18.6,9C18.6,9,18.6,9,18.6,9L18.6,9z M10,22.5
	c-0.2,0-0.4,0.2-0.4,0.4v1.8c0,0.2,0.2,0.4,0.4,0.4c0.2,0,0.4-0.2,0.4-0.4v-1.8C10.4,22.6,10.2,22.5,10,22.5L10,22.5z M20.1,22.5
	c-0.2,0-0.4,0.2-0.4,0.4v1.8c0,0.2,0.2,0.4,0.4,0.4c0.2,0,0.4-0.2,0.4-0.4v-1.8C20.5,22.6,20.4,22.5,20.1,22.5L20.1,22.5z"/>
</svg>
