<svg xmlns="http://www.w3.org/2000/svg" width="64.844" height="65" viewBox="0 0 64.844 65">
  <metadata><?xpacket begin="﻿" id="W5M0MpCehiHzreSzNTczkc9d"?>
<x:xmpmeta xmlns:x="adobe:ns:meta/" x:xmptk="Adobe XMP Core 5.6-c138 79.159824, 2016/09/14-01:09:01        ">
   <rdf:RDF xmlns:rdf="http://www.w3.org/1999/02/22-rdf-syntax-ns#">
      <rdf:Description rdf:about=""/>
   </rdf:RDF>
</x:xmpmeta>
                                                                                                    
                                                                                                    
                                                                                                    
                                                                                                    
                                                                                                    
                                                                                                    
                                                                                                    
                                                                                                    
                                                                                                    
                                                                                                    
                                                                                                    
                                                                                                    
                                                                                                    
                                                                                                    
                                                                                                    
                                                                                                    
                                                                                                    
                                                                                                    
                                                                                                    
                                                                                                    
                           
<?xpacket end="w"?></metadata>
<defs>
    <style>
      .cls-1 {
        fill: #ffe742;
        fill-rule: evenodd;
      }
    </style>
  </defs>
  <path id="Фигура_46" data-name="Фигура 46" class="cls-1" d="M415.4,6198.49a26.565,26.565,0,0,0-37.627,0,0.981,0.981,0,0,0,0,1.38,0.967,0.967,0,0,0,1.371,0,24.7,24.7,0,1,1,0,34.97,24.784,24.784,0,0,1-3.085-31.21,0.97,0.97,0,1,0-1.611-1.08,26.728,26.728,0,0,0,3.325,33.66A26.639,26.639,0,0,0,415.4,6198.49Zm-3.556,3.57a21.615,21.615,0,1,0,0,30.59A21.553,21.553,0,0,0,411.846,6202.06Zm-1.37,29.21a19.68,19.68,0,1,1,0-27.84A19.622,19.622,0,0,1,410.476,6231.27Zm16.6-44.48a26.588,26.588,0,0,0-37.626,0c-0.63.63-1.233,1.3-1.792,1.98a0.976,0.976,0,0,0,.136,1.37,0.964,0.964,0,0,0,1.364-.14c0.518-.63,1.078-1.25,1.662-1.84a24.7,24.7,0,1,1,33.05,36.64,0.968,0.968,0,0,0,.614,1.72,0.95,0.95,0,0,0,.613-0.22,25.169,25.169,0,0,0,1.979-1.8A26.737,26.737,0,0,0,427.077,6186.79ZM429,6199.67a0.968,0.968,0,1,0-1.862.53,19.739,19.739,0,0,1-2.312,16.03,0.972,0.972,0,0,0,.3,1.34,0.921,0.921,0,0,0,.521.16,0.968,0.968,0,0,0,.817-0.45A21.684,21.684,0,0,0,429,6199.67Zm-1.557-3.94a21.547,21.547,0,0,0-30.781-8.32,0.968,0.968,0,1,0,1.043,1.63,19.665,19.665,0,0,1,28.016,7.58,0.962,0.962,0,0,0,.862.53,1.01,1.01,0,0,0,.443-0.11A0.972,0.972,0,0,0,427.447,6195.73ZM395.5,6208.97h2.125v20.12H395.5v-20.12Zm1.075-2.04,1.493,1.5-7.851,7.87-1.493-1.5Zm0.461-.06-1.515,1.51,7.962,7.98,1.514-1.51Z" transform="translate(-370 -6179)"/>
</svg>
