<svg height="512pt" viewBox="-8 0 512 512.00022" width="512pt" xmlns="http://www.w3.org/2000/svg"><path d="m354.167969 459.183594c1.984375 0 4.027343-.101563 6.125-.304688 11.382812-1.113281 29.082031-6.164062 40.351562-11.527344 30.15625-14.71875 32.832031-32.976562 32.582031-40.140624-.335937-9.660157-5.898437-17.824219-14.519531-21.3125-9.445312-3.816407-20.273437-1.152344-29.015625 7.136718-7.203125 5.773438-27.996094 11.933594-38.660156 11.410156-12.386719-.597656-22.992188 4.601563-28.386719 13.9375-4.839843 8.371094-4.613281 18.601563.59375 26.691407 5.867188 9.117187 16.949219 14.109375 30.929688 14.109375zm-18.4375-33.238282c2.382812-4.125 7.195312-6.433593 13.316406-6.433593.410156 0 .824219.007812 1.246094.03125h.007812c13.226563.632812 38.527344-6.167969 49.214844-15.019531.148437-.125.289063-.25.425781-.382813 4.425782-4.261719 9.199219-5.808594 13.097656-4.230469 3.054688 1.234375 4.957032 4.160156 5.082032 7.824219.117187 3.289063-1.285156 14.894531-24.039063 26-9.535156 4.539063-25.683593 9.164063-35.257812 10.101563-11.007813 1.070312-19.347657-1.460938-22.875-6.945313-2.128907-3.304687-2.210938-7.5-.21875-10.945313zm0 0"/><path d="m484.390625 263.558594c10.136719-19.113282 14.285156-39.863282 11.988281-60.007813-4.058594-35.59375-27.597656-66.285156-59.972656-78.183593-19.101562-7.023438-39.132812-6.683594-58.128906.507812 6-19.734375 6.285156-39.644531.710937-58.480469-6.652343-22.484375-21.183593-41.65625-40.90625-53.980469-18.082031-11.300781-39.070312-15.671874-59.082031-12.308593-22.253906 3.742187-42.472656 16.726562-58.46875 37.554687-.066406.089844-.132812.179688-.199219.269532-6.90625 9.882812-15.550781 19.109374-25.695312 27.421874-3.226563 2.648438-3.699219 7.410157-1.054688 10.636719 2.648438 3.226563 7.410157 3.699219 10.636719 1.054688 11.164062-9.152344 20.71875-19.351563 28.398438-30.308594 31.625-41.058594 72.25-37.253906 97.453124-21.507813 30.058594 18.785157 51.335938 61.152344 27.886719 110.257813-4.949219 3.34375-9.769531 7.183594-14.414062 11.53125-.082031.078125-.160157.152344-.238281.234375-30.144532 30.839844-77.921876 48.292969-142.003907 51.863281-41.519531 2.304688-75.558593 20.835938-93.390625 50.84375-6.6875 11.253907-10.769531 23.554688-12.210937 36.066407-50.777344-3.488282-76.859375-36.433594-80.191407-68.8125-3.683593-35.800782 18.808594-77.753907 77.363282-90.769532 30.398437-6.757812 57.222656-16.328125 79.726562-28.441406 3.671875-1.976562 5.050782-6.558594 3.070313-10.234375-1.976563-3.675781-6.558594-5.054687-10.234375-3.074219-21.28125 11.457032-46.796875 20.539063-75.84375 26.992188-30.148438 6.703125-54.492188 21.242187-70.394532 42.039062-14.449218 18.890625-21.097656 41.988282-18.726562 65.039063 4.011719 38.957031 34.855469 78.613281 94.777344 82.402343.515625 9.398438 2.519531 18.726563 6.039062 27.632813-1.109375.996094-2.203125 2.011719-3.261718 3.0625-23.527344 23.351563-31.96875 57.367187-22.027344 88.765625 6.320312 19.953125 19.796875 37.96875 38.976562 52.097656 21.382813 15.757813 49.390625 26.664063 83.242188 32.414063 23.140625 3.933593 52.179687 5.863281 81.378906 5.863281 35.070312 0 70.367188-2.785156 95.917969-8.21875 28.820312-6.128906 52.546875-17.128906 70.527343-32.6875 16.0625-13.902344 27.21875-31.429688 32.265626-50.699219 8.917968-34.0625-1.765626-70.554687-27.222657-92.964843-4.90625-4.316407-10.179687-7.941407-15.75-10.882813 22.121094-15.511719 38.617188-33.3125 49.058594-52.988281zm-63.222656 44.347656c-1.027344.664062-2.054688 1.324219-3.082031 1.972656-18.535157-4.78125-39.210938-3.101562-60.109376 5.324219-.101562.042969-.207031.085937-.308593.132813-14.375 6.550781-30.628907 10.542968-48.316407 11.867187-4.160156.308594-7.28125 3.9375-6.972656 8.097656.3125 4.164063 3.921875 7.28125 8.101563 6.972657 19.40625-1.449219 37.339843-5.863282 53.300781-13.113282 18.683594-7.5 36.574219-8.847656 52.382812-4.222656.570313.253906 1.171876.433594 1.78125.542969 8.394532 2.722656 16.179688 7.15625 23.148438 13.292969 21.207031 18.671874 30.074219 49.207031 22.585938 77.792968-5.488282 20.964844-24.652344 58.25-91.3125 72.433594-45.269532 9.625-122.253907 10.628906-171.621094 2.234375-58.332032-9.90625-98.550782-36.941406-110.339844-74.171875-8.226562-25.976562-1.226562-54.128906 18.265625-73.476562 1.941406-1.925782 3.972656-3.722657 6.074219-5.414063.324218-.222656.628906-.460937.90625-.726563 22.921875-17.84375 54.859375-21.773437 89.167968-10.625 23.460938 7.621094 45.921876 12.574219 66.769532 14.726563 4.148437.429687 7.867187-2.585937 8.296875-6.738281.425781-4.152344-2.589844-7.867188-6.742188-8.296875-19.792969-2.042969-41.207031-6.773438-63.652343-14.066407-22.519532-7.316406-44.09375-8.898437-64.128907-4.703124-11.363281 2.382812-21.988281 6.640624-31.453125 12.554687-6.679687-20.25-4.25-42.695313 6.992188-61.613281 15.441406-25.988282 44.292968-41.425782 81.238281-43.472656 67.890625-3.789063 118.980469-22.71875 151.855469-56.269532 4.371094-4.085937 8.871094-7.644531 13.464844-10.683594.351562-.191406.6875-.402343 1.003906-.648437 20.007812-12.847656 41.777344-15.757813 62.726562-8.054687 27.058594 9.945312 46.753906 35.738281 50.167969 65.707031 2.507813 21.992187-1.984375 64.574219-60.191406 102.644531zm0 0"/><path d="m429.167969 195.914062c-10.460938-1.035156-20.628907 4.273438-26.542969 13.839844-.058594.097656-.117188.195313-.171875.292969-4.539063 8.140625-22.28125 21.886719-32.730469 25.355469-11.949218 3.964844-20.089844 12.789062-21.773437 23.601562-1.511719 9.691406 2.445312 19.28125 10.332031 25.019532 4.960938 3.617187 10.984375 5.417968 17.644531 5.417968 6.980469 0 14.648438-1.980468 22.507813-5.933594 11.542968-5.808593 26.367187-17.660156 34.027344-25.753906 21.492187-22.648437 19.945312-38.792968 17.113281-46.398437-3.203125-8.597657-11.023438-14.515625-20.40625-15.441407zm-7.679688 51.445313c-7.46875 7.890625-21.136719 18.261719-29.847656 22.648437-10.125 5.09375-19.042969 5.75-24.460937 1.800782-3.285157-2.390625-4.933594-6.40625-4.296876-10.472656.804688-5.183594 5.035157-9.40625 11.597657-11.585938 12.726562-4.222656 34.09375-19.855469 41.078125-32.167969 2.898437-4.613281 7.425781-7.085937 12.125-6.625 3.648437.359375 6.535156 2.480469 7.722656 5.675781 2.691406 7.21875-2.507812 18.703126-13.917969 30.726563zm0 0"/><path d="m269.589844 172.570312c8.417968 0 17.636718-3.371093 26.640625-9.933593 10.425781-7.628907 23.035156-21.621094 29.199219-30.734375 17.425781-25.691406 13.296874-41.277344 9.285156-48.285156-4.539063-7.921876-13.164063-12.46875-22.539063-11.851563-10.4375.683594-19.558593 7.535156-23.804687 17.882813-.042969.097656-.078125.199218-.117188.300781-3.15625 8.734375-18.316406 25.054687-27.96875 30.105469-.003906.003906-.011718.007812-.015625.007812-11.085937 5.835938-17.640625 15.820312-17.535156 26.710938.089844 9.757812 5.53125 18.523437 14.195313 22.878906 3.890624 1.957031 8.160156 2.917968 12.660156 2.917968zm-2.289063-39.125c11.78125-6.167968 30.21875-24.945312 35.105469-38.183593 2.082031-4.964844 6.09375-8.109375 10.757812-8.414063 3.609376-.230468 6.765626 1.367188 8.433594 4.28125 3.792969 6.621094.546875 18.6875-8.679687 32.296875-6.003907 8.875-17.734375 21.246094-25.601563 27.003907-9.070312 6.613281-17.671875 8.699218-23.597656 5.71875-3.582031-1.800782-5.832031-5.445313-5.871094-9.515626-.046875-5.191406 3.398438-9.996093 9.453125-13.1875zm0 0"/></svg>