<svg xmlns="http://www.w3.org/2000/svg" width="16" height="16" viewBox="0 0 16 16">
  <metadata><?xpacket begin="﻿" id="W5M0MpCehiHzreSzNTczkc9d"?>
<x:xmpmeta xmlns:x="adobe:ns:meta/" x:xmptk="Adobe XMP Core 5.6-c138 79.159824, 2016/09/14-01:09:01        ">
   <rdf:RDF xmlns:rdf="http://www.w3.org/1999/02/22-rdf-syntax-ns#">
      <rdf:Description rdf:about=""/>
   </rdf:RDF>
</x:xmpmeta>
                                                                                                    
                                                                                                    
                                                                                                    
                                                                                                    
                                                                                                    
                                                                                                    
                                                                                                    
                                                                                                    
                                                                                                    
                                                                                                    
                                                                                                    
                                                                                                    
                                                                                                    
                                                                                                    
                                                                                                    
                                                                                                    
                                                                                                    
                                                                                                    
                                                                                                    
                                                                                                    
                           
<?xpacket end="w"?></metadata>
<defs>
    <style>
      .cls-1 {
        fill: #fff;
        fill-rule: evenodd;
      }
    </style>
  </defs>
  <path id="Фигура_39" data-name="Фигура 39" class="cls-1" d="M1096.49,53.516a5.18,5.18,0,0,0-8.84,3.659,5.013,5.013,0,0,0,.42,2.033l-5.71,5.7a0.684,0.684,0,0,0-.18.385L1082,67.321a0.649,0.649,0,0,0,.18.5,0.634,0.634,0,0,0,.5.18l2.03-.18a0.615,0.615,0,0,0,.38-0.18l0.62-.614a0.1,0.1,0,0,1-.01-0.053l-0.1-1.468a0.289,0.289,0,0,1,.08-0.234,0.322,0.322,0,0,1,.24-0.087l1.47,0.1,0.05,0.009,0.48-.483c0-.016-0.01-0.034-0.01-0.053l-0.1-1.468a0.333,0.333,0,0,1,.09-0.234,0.3,0.3,0,0,1,.23-0.088l1.47,0.1a0.2,0.2,0,0,1,.05.008l1.14-1.139a5.214,5.214,0,0,0,2.04.414A5.174,5.174,0,0,0,1096.49,53.516Zm-2.16,5.166a2.1,2.1,0,0,1-1.5.624,2.131,2.131,0,1,1,0-4.261,2.1,2.1,0,0,1,1.5.624A2.135,2.135,0,0,1,1094.33,58.681Z" transform="translate(-1082 -52)"/>
</svg>
