<svg xmlns="http://www.w3.org/2000/svg" width="14" height="19" viewBox="0 0 14 19">
  <metadata><?xpacket begin="﻿" id="W5M0MpCehiHzreSzNTczkc9d"?>
<x:xmpmeta xmlns:x="adobe:ns:meta/" x:xmptk="Adobe XMP Core 5.6-c138 79.159824, 2016/09/14-01:09:01        ">
   <rdf:RDF xmlns:rdf="http://www.w3.org/1999/02/22-rdf-syntax-ns#">
      <rdf:Description rdf:about=""/>
   </rdf:RDF>
</x:xmpmeta>
                                                                                                    
                                                                                                    
                                                                                                    
                                                                                                    
                                                                                                    
                                                                                                    
                                                                                                    
                                                                                                    
                                                                                                    
                                                                                                    
                                                                                                    
                                                                                                    
                                                                                                    
                                                                                                    
                                                                                                    
                                                                                                    
                                                                                                    
                                                                                                    
                                                                                                    
                                                                                                    
                           
<?xpacket end="w"?></metadata>
<defs>
    <style>
      .cls-1 {
        fill: #042642;
        fill-rule: evenodd;
      }
    </style>
  </defs>
  <path id="Фигура_38" data-name="Фигура 38" class="cls-1" d="M979.611,56.125h-1.167V54.541a5.445,5.445,0,1,0-10.888,0v1.584h-1.167a0.392,0.392,0,0,0-.389.4v9.9A1.572,1.572,0,0,0,967.556,68h10.888A1.572,1.572,0,0,0,980,66.416v-9.9A0.392,0.392,0,0,0,979.611,56.125Zm-5.447,8.269a0.4,0.4,0,0,1-.1.308,0.39,0.39,0,0,1-.29.132h-1.556a0.39,0.39,0,0,1-.29-0.132,0.4,0.4,0,0,1-.1-0.308l0.245-2.245a1.556,1.556,0,1,1,1.838,0Zm1.947-8.269h-6.222V54.541a3.111,3.111,0,1,1,6.222,0v1.584Z" transform="translate(-966 -49)"/>
</svg>
