<svg height="512pt" viewBox="-16 0 512 512" width="512pt" xmlns="http://www.w3.org/2000/svg"><path d="m452.335938 0h-424.699219c-15.238281 0-27.636719 12.394531-27.636719 27.625v456.722656c0 15.246094 12.398438 27.652344 27.636719 27.652344h424.699219c15.253906 0 27.664062-12.40625 27.664062-27.652344v-456.722656c0-15.230469-12.410156-27.625-27.664062-27.625zm0 497h-424.699219c-6.96875 0-12.636719-5.675781-12.636719-12.652344v-396.636718h120.738281c4.144531 0 7.5-3.359376 7.5-7.5 0-4.144532-3.355469-7.5-7.5-7.5h-120.738281v-45.085938c0-6.960938 5.667969-12.625 12.636719-12.625h424.699219c6.984374 0 12.664062 5.664062 12.664062 12.625v45.085938h-294.097656c-4.140625 0-7.5 3.355468-7.5 7.5 0 4.140624 3.359375 7.5 7.5 7.5h294.097656v396.636718c0 6.976563-5.679688 12.652344-12.664062 12.652344zm0 0"/><path d="m176.285156 276.09375c.246094.261719.515625.511719.800782.734375 2.746093 2.507813 5.640624 4.882813 8.703124 7.082031 16.167969 11.582032 35.1875 17.703125 55.003907 17.703125 23.171875 0 45.355469-8.5625 62.433593-23.550781.410157-.292969.785157-.625 1.121094-.988281 4.886719-4.429688 9.339844-9.394531 13.253906-14.84375 14.707032-20.496094 20.550782-45.488281 16.453126-70.375-4.09375-24.886719-17.640626-46.691407-38.144532-61.390625-16.152344-11.582032-35.167968-17.703125-54.988281-17.703125-30.40625 0-59.125 14.722656-76.820313 39.382812-14.707031 20.492188-20.550781 45.484375-16.453124 70.375 3.421874 20.800781 13.464843 39.429688 28.636718 53.574219zm18.242188-4.375c-1.511719-1.085938-2.964844-2.234375-4.386719-3.410156 6.519531-20.847656 28.523437-26.808594 39.621094-28.496094 3.34375.902344 6.828125 1.402344 10.386719 1.421875h.308593c3.480469 0 7.011719-.5 10.472657-1.457031 20.164062 3.039062 34.5625 13.855468 39.492187 29.457031-13.9375 11.101563-31.421875 17.378906-49.628906 17.378906-16.664063 0-32.660157-5.152343-46.265625-14.894531zm33.484375-77.398438c4.46875 3.230469 10.449219 4.535157 19.035156 4.535157h18.644531v4.972656c0 6.675781-4 13.328125-10.6875 17.792969-4.539062 3.019531-9.777344 4.65625-14.75 4.613281-2.539062-.011719-5.046875-.433594-7.445312-1.183594-.136719-.046875-.273438-.097656-.414063-.136719-9.816406-3.234374-17.660156-11.980468-17.660156-21.085937v-4.117187c5.324219-.277344 9.863281-2.152344 13.277344-5.390626zm-13.242188-9.632812c.773438-14.75 13.328125-22.457031 25.730469-22.457031 7.019531 0 13.335938 2.492187 17.789062 7.015625 3.597657 3.648437 5.929688 8.621094 6.898438 14.609375h-18.140625c-10.464844 0-11.207031-1.679688-13.191406-6.164063-1.324219-2.988281-4.429688-4.777344-7.675781-4.421875-3.25.355469-5.894532 2.773438-6.535157 5.980469-.707031 3.527344-2.039062 5.085938-4.875 5.4375zm-38.484375-23.796875c14.890625-20.742187 39.050782-33.128906 64.636719-33.128906 16.667969 0 32.660156 5.152343 46.25 14.894531 17.242187 12.363281 28.636719 30.703125 32.082031 51.636719 3.445313 20.933593-1.472656 41.953125-13.839844 59.191406-1.085937 1.511719-2.226562 2.972656-3.402343 4.394531-6.234375-12.964844-17.675781-23.019531-32.597657-28.714844 7.15625-6.972656 11.277344-16.03125 11.277344-25.335937v-12.472656c0-.011719 0-.019531 0-.03125.171875-13.375-3.875-24.644531-11.714844-32.605469-7.296874-7.40625-17.410156-11.484375-28.476562-11.484375-19.765625 0-40.769531 13.632813-40.769531 38.90625v17.6875c0 9.535156 4.382812 18.519531 11.320312 25.300781-14.941406 5.488282-26.1875 15.046875-32.359375 27.554688-8.382812-10.488282-14.003906-22.988282-16.246094-36.601563-3.441406-20.933593 1.472657-41.953125 13.839844-59.191406zm0 0"/><path d="m59.285156 34.101562h-.226562c-4.144532 0-7.5 3.359376-7.5 7.5 0 4.140626 3.355468 7.5 7.5 7.5h.226562c4.140625 0 7.5-3.359374 7.5-7.5 0-4.140624-3.359375-7.5-7.5-7.5zm0 0"/><path d="m95.527344 34.101562h-.199219c-4.140625 0-7.5 3.359376-7.5 7.5 0 4.140626 3.359375 7.5 7.5 7.5h.199219c4.140625 0 7.5-3.359374 7.5-7.5 0-4.140624-3.359375-7.5-7.5-7.5zm0 0"/><path d="m131.796875 34.269531h-.226563c-4.144531 0-7.5 3.359375-7.5 7.5 0 4.144531 3.355469 7.5 7.5 7.5h.226563c4.140625 0 7.5-3.355469 7.5-7.5 0-4.140625-3.359375-7.5-7.5-7.5zm0 0"/><path d="m198.667969 51.339844h141.171875c4.140625 0 7.5-3.355469 7.5-7.5 0-4.140625-3.359375-7.5-7.5-7.5h-141.171875c-4.144531 0-7.5 3.359375-7.5 7.5 0 4.144531 3.355469 7.5 7.5 7.5zm0 0"/><path d="m351.578125 329.613281h-225.933594c-9.71875 0-17.625 7.890625-17.625 17.589844v17.890625c0 9.699219 7.90625 17.589844 17.625 17.589844h225.933594c9.71875 0 17.625-7.890625 17.625-17.589844v-17.890625c0-9.699219-7.90625-17.589844-17.625-17.589844zm2.625 35.480469c0 1.402344-1.203125 2.589844-2.625 2.589844h-225.933594c-1.421875 0-2.625-1.1875-2.625-2.589844v-17.890625c0-1.402344 1.203125-2.589844 2.625-2.589844h225.933594c1.421875 0 2.625 1.1875 2.625 2.589844zm0 0"/><path d="m348.144531 405.496094h-225.960937c-9.703125 0-17.597656 7.894531-17.597656 17.59375v17.886718c0 9.699219 7.894531 17.589844 17.597656 17.589844h225.964844c9.714843 0 17.621093-7.890625 17.621093-17.589844v-17.886718c0-9.699219-7.90625-17.59375-17.625-17.59375zm2.625 35.480468c0 1.40625-1.199219 2.589844-2.621093 2.589844h-225.964844c-1.40625 0-2.597656-1.183594-2.597656-2.589844v-17.886718c0-1.40625 1.191406-2.59375 2.597656-2.59375h225.964844c1.421874 0 2.621093 1.1875 2.621093 2.59375zm0 0"/></svg>