<svg height="512pt" viewBox="0 -103 512 512" width="512pt" xmlns="http://www.w3.org/2000/svg"><path d="m432 145h-31.449219c20.234375-14.53125 33.449219-38.242188 33.449219-65 0-44.113281-35.886719-80-80-80h-196c-44.113281 0-80 35.886719-80 80 0 26.757812 13.214844 50.46875 33.449219 65h-31.449219c-44.113281 0-80 35.886719-80 80s35.886719 80 80 80h352c44.113281 0 80-35.886719 80-80s-35.886719-80-80-80zm0 15c23.992188 0 44.976562 13.078125 56.238281 32.472656h-140.175781c-5.828125-13.035156-15.035156-24.230468-26.511719-32.472656zm-157 130c-35.839844 0-65-29.160156-65-65s29.160156-65 65-65 65 29.160156 65 65-29.160156 65-65 65zm-116.957031-82.527344h38.917969c-1.269532 5.644532-1.960938 11.503906-1.960938 17.527344 0 6.003906.6875 11.851562 1.945312 17.480469l-38.902343.039062c1.265625-5.640625 1.957031-11.5 1.957031-17.519531 0-6.023438-.691406-11.882812-1.957031-17.527344zm46.507812-62.472656c11.476563-8.242188 20.683594-19.4375 26.511719-32.472656l179.207031-.054688c-11.25 19.425782-32.253906 32.527344-56.269531 32.527344zm149.449219-130c23.992188 0 44.976562 13.078125 56.238281 32.472656h-33.25c-4.140625 0-7.5 3.355469-7.5 7.5 0 4.140625 3.359375 7.5 7.5 7.5h39.589844c1.566406 5.578125 2.421875 11.453125 2.421875 17.527344 0 6.054688-.851562 11.90625-2.40625 17.472656l-180.554688.054688c1.269532-5.644532 1.960938-11.507813 1.960938-17.527344 0-6.023438-.691406-11.886719-1.960938-17.53125h105.960938c4.140625 0 7.5-3.355469 7.5-7.5 0-4.140625-3.359375-7.5-7.5-7.5h-110.9375c-5.828125-13.03125-15.035156-24.226562-26.511719-32.46875zm-261 65c0-35.839844 29.160156-65 65-65s65 29.160156 65 65-29.160156 65-65 65-65-29.160156-65-65zm65 80h70.449219c-11.476563 8.242188-20.683594 19.4375-26.511719 32.472656h-48.878906c-5.824219-13.035156-15.03125-24.230468-26.507813-32.472656zm-143 65c0-35.839844 29.160156-65 65-65s65 29.160156 65 65-29.160156 65-65 65-65-29.160156-65-65zm111.550781 65c11.476563-8.242188 20.683594-19.4375 26.511719-32.472656l48.851562-.050782c5.824219 13.054688 15.042969 24.269532 26.535157 32.523438zm305.449219 0h-110.449219c11.476563-8.242188 20.683594-19.4375 26.511719-32.472656l27.042969-.007813c4.144531 0 7.5-3.359375 7.5-7.503906 0-4.140625-3.359375-7.496094-7.5-7.496094h-.003907l-22.058593.007813c1.265625-5.644532 1.957031-11.503906 1.957031-17.527344s-.691406-11.882812-1.957031-17.527344h141.535156c1.566406 5.582032 2.421875 11.453125 2.421875 17.527344 0 6.066406-.851562 11.933594-2.414062 17.507812l-84.457032.011719c-4.140625 0-7.5 3.359375-7.496094 7.5 0 4.144531 3.355469 7.5 7.5 7.5l78.121094-.011719c-11.261718 19.402344-32.25 32.492188-56.253906 32.492188zm0 0"/><path d="m275 189.167969c-19.757812 0-35.832031 16.074219-35.832031 35.832031s16.074219 35.832031 35.832031 35.832031 35.832031-16.074219 35.832031-35.832031-16.074219-35.832031-35.832031-35.832031zm0 56.664062c-11.488281 0-20.832031-9.34375-20.832031-20.832031s9.34375-20.832031 20.832031-20.832031 20.832031 9.34375 20.832031 20.832031-9.34375 20.832031-20.832031 20.832031zm0 0"/><path d="m115.832031 225c0-19.757812-16.074219-35.832031-35.832031-35.832031s-35.832031 16.074219-35.832031 35.832031 16.074219 35.832031 35.832031 35.832031 35.832031-16.074219 35.832031-35.832031zm-56.664062 0c0-11.488281 9.34375-20.832031 20.832031-20.832031s20.832031 9.34375 20.832031 20.832031-9.34375 20.832031-20.832031 20.832031-20.832031-9.34375-20.832031-20.832031zm0 0"/><path d="m158 44.167969c-19.757812 0-35.832031 16.074219-35.832031 35.832031s16.074219 35.832031 35.832031 35.832031 35.832031-16.074219 35.832031-35.832031-16.074219-35.832031-35.832031-35.832031zm0 56.664062c-11.488281 0-20.832031-9.34375-20.832031-20.832031s9.34375-20.832031 20.832031-20.832031 20.832031 9.34375 20.832031 20.832031-9.34375 20.832031-20.832031 20.832031zm0 0"/></svg>