<svg xmlns="http://www.w3.org/2000/svg" width="64.845" height="65" viewBox="0 0 64.845 65">
  <metadata><?xpacket begin="﻿" id="W5M0MpCehiHzreSzNTczkc9d"?>
<x:xmpmeta xmlns:x="adobe:ns:meta/" x:xmptk="Adobe XMP Core 5.6-c138 79.159824, 2016/09/14-01:09:01        ">
   <rdf:RDF xmlns:rdf="http://www.w3.org/1999/02/22-rdf-syntax-ns#">
      <rdf:Description rdf:about=""/>
   </rdf:RDF>
</x:xmpmeta>
                                                                                                    
                                                                                                    
                                                                                                    
                                                                                                    
                                                                                                    
                                                                                                    
                                                                                                    
                                                                                                    
                                                                                                    
                                                                                                    
                                                                                                    
                                                                                                    
                                                                                                    
                                                                                                    
                                                                                                    
                                                                                                    
                                                                                                    
                                                                                                    
                                                                                                    
                                                                                                    
                           
<?xpacket end="w"?></metadata>
<defs>
    <style>
      .cls-1 {
        fill: #ffe742;
        fill-rule: evenodd;
      }
    </style>
  </defs>
  <path id="Фигура_46" data-name="Фигура 46" class="cls-1" d="M1026.53,6198.49a26.567,26.567,0,0,0-37.629,0,0.981,0.981,0,0,0,0,1.38,0.966,0.966,0,0,0,1.37,0,24.7,24.7,0,1,1,0,34.97,24.787,24.787,0,0,1-3.085-31.21,0.97,0.97,0,1,0-1.611-1.08,26.726,26.726,0,0,0,3.326,33.66A26.64,26.64,0,0,0,1026.53,6198.49Zm-3.56,3.57a21.615,21.615,0,1,0,0,30.59A21.552,21.552,0,0,0,1022.97,6202.06Zm-1.37,29.21a19.68,19.68,0,1,1,0-27.84A19.62,19.62,0,0,1,1021.6,6231.27Zm16.6-44.48a26.581,26.581,0,0,0-37.62,0c-0.633.63-1.236,1.3-1.8,1.98a0.976,0.976,0,0,0,.136,1.37,0.958,0.958,0,0,0,1.359-.14c0.52-.63,1.08-1.25,1.67-1.84a24.7,24.7,0,0,1,34.88,34.97,23.97,23.97,0,0,1-1.83,1.67,0.966,0.966,0,0,0,.61,1.72,0.935,0.935,0,0,0,.61-0.22,23.993,23.993,0,0,0,1.98-1.8A26.726,26.726,0,0,0,1038.2,6186.79Zm1.93,12.88a0.967,0.967,0,1,0-1.86.53,19.784,19.784,0,0,1-2.31,16.03,0.97,0.97,0,0,0,.29,1.34,0.909,0.909,0,0,0,.52.16,0.98,0.98,0,0,0,.82-0.45A21.7,21.7,0,0,0,1040.13,6199.67Zm-1.56-3.94a21.547,21.547,0,0,0-30.78-8.32,0.966,0.966,0,0,0-.29,1.34,0.956,0.956,0,0,0,1.33.29,19.657,19.657,0,0,1,28.02,7.58,0.958,0.958,0,0,0,.86.53,1.064,1.064,0,0,0,.45-0.11A0.97,0.97,0,0,0,1038.57,6195.73Zm-31.66,11.11h2.03v20.13h-2.03v-20.13Zm1.03,22.16,1.45-1.5-7.63-7.87-1.45,1.5Zm0.45,0.07-1.47-1.52,7.73-7.98,1.47,1.52Z" transform="translate(-981.125 -6179)"/>
</svg>
