<?xml version="1.0" encoding="utf-8"?>
<!-- Generator: Adobe Illustrator 21.0.0, SVG Export Plug-In . SVG Version: 6.00 Build 0)  -->
<svg version="1.1" id="Layer_1" xmlns="http://www.w3.org/2000/svg" xmlns:xlink="http://www.w3.org/1999/xlink" x="0px" y="0px"
	 viewBox="0 0 64 64" style="enable-background:new 0 0 64 64;" xml:space="preserve">
<g id="Plus">
	<path d="M33,33h10c0.5,0,1-0.4,1-1c0-0.5-0.4-1-1-1H33"/>
	<path d="M41,31H21c-0.5,0-1,0.4-1,1c0,0.5,0.4,1,1,1h20"/>
	<path d="M32,0C14.3,0,0,14.3,0,32c0,17.7,14.3,32,32,32s32-14.3,32-32C64,14.3,49.7,0,32,0z M32,62C15.5,62,2,48.5,2,32
		S15.5,2,32,2s30,13.5,30,30S48.5,62,32,62z"/>
</g>
</svg>
