<?xml version="1.0" encoding="iso-8859-1"?>
<!-- Generator: Adobe Illustrator 19.0.0, SVG Export Plug-In . SVG Version: 6.00 Build 0)  -->
<svg version="1.1" id="Layer_1" xmlns="http://www.w3.org/2000/svg" xmlns:xlink="http://www.w3.org/1999/xlink" x="0px" y="0px"
	 viewBox="0 0 512 512" style="enable-background:new 0 0 512 512;" xml:space="preserve">
<g>
	<g>
		<path d="M502.208,11.82H9.792C4.384,11.82,0,16.204,0,21.612v341.8c0,5.408,4.384,9.792,9.792,9.792
			c5.408,0,9.792-4.384,9.792-9.792V31.404h472.832v403.76H19.584v-43.029c0-5.408-4.384-9.792-9.792-9.792
			c-5.408,0-9.792,4.384-9.792,9.792v52.821c0,5.408,4.384,9.792,9.792,9.792h23.711v35.639c0,5.408,4.384,9.792,9.792,9.792h94.994
			c5.408,0,9.792-4.384,9.792-9.792v-35.639h215.837v35.639c0,5.408,4.383,9.792,9.792,9.792h94.994
			c5.409,0,9.792-4.384,9.792-9.792v-35.639h23.711c5.409,0,9.792-4.384,9.792-9.792V21.612C512,16.204,507.617,11.82,502.208,11.82
			z M128.497,480.596h-75.41v-25.847h75.41V480.596z M458.912,480.596h-75.41v-25.847h75.41V480.596z"/>
	</g>
</g>
<g>
	<g>
		<path d="M256,131.596c-56.071,0-101.689,45.617-101.689,101.689S199.928,334.973,256,334.973s101.689-45.617,101.689-101.688
			S312.071,131.596,256,131.596z M337.499,223.49h-30.038c-1.363-7.176-4.185-13.838-8.159-19.661l21.223-21.223
			C329.612,194.152,335.67,208.177,337.499,223.49z M265.791,151.784c15.315,1.829,29.34,7.886,40.885,16.973l-21.223,21.223
			c-5.823-3.973-12.487-6.794-19.663-8.158V151.784z M246.208,151.784v30.038h0c-7.176,1.363-13.838,4.185-19.661,8.158
			l-21.223-21.223C216.869,159.67,230.894,153.614,246.208,151.784z M191.475,182.605l21.223,21.223
			c-3.973,5.823-6.796,12.487-8.159,19.661h-30.038C176.33,208.175,182.388,194.149,191.475,182.605z M174.5,243.074h30.038
			c1.363,7.176,4.185,13.841,8.157,19.664l-21.223,21.223C182.385,272.416,176.327,258.389,174.5,243.074z M246.208,314.784
			c-15.315-1.829-29.341-7.887-40.887-16.976l21.223-21.221c5.823,3.974,12.487,6.796,19.664,8.159V314.784z M223.191,233.285
			c0-18.091,14.718-32.809,32.809-32.809s32.809,14.718,32.809,32.809c0,18.091-14.717,32.808-32.809,32.808
			C237.909,266.092,223.191,251.376,223.191,233.285z M265.791,314.784v-30.038c7.177-1.363,13.841-4.185,19.665-8.159
			l21.223,21.223C295.132,306.898,281.107,312.955,265.791,314.784z M320.527,283.961l-21.223-21.223
			c3.974-5.823,6.796-12.488,8.157-19.664H337.5C335.671,258.389,329.615,272.415,320.527,283.961z"/>
	</g>
</g>
<g>
	<g>
		<path d="M442.784,71.241h-56.22c-5.409,0-9.792,4.384-9.792,9.792c0,5.408,4.383,9.792,9.792,9.792h46.428V375.75H79.002v-21.05
			H91.5c5.408,0,9.792-4.384,9.792-9.792v-78.333c0-5.408-4.384-9.792-9.792-9.792H79.002v-47H91.5c5.408,0,9.792-4.384,9.792-9.792
			v-78.33c0-5.408-4.384-9.792-9.792-9.792H79.002V90.825h277.535c5.409,0,9.792-4.384,9.792-9.792c0-5.408-4.383-9.792-9.792-9.792
			H69.209c-5.408,0-9.792,4.384-9.792,9.792v30.833H48.322c-5.408,0-9.792,4.384-9.792,9.792v78.333
			c0,5.408,4.384,9.792,9.792,9.792h11.095v47H48.322v0c-5.408,0-9.792,4.384-9.792,9.792v78.333c0,5.408,4.384,9.792,9.792,9.792
			h11.095v30.843c0,5.408,4.384,9.792,9.792,9.792h373.575c5.409,0,9.792-4.384,9.792-9.792V81.033
			C452.576,75.625,448.193,71.241,442.784,71.241z M58.114,190.201v-58.749h11.006c0.03,0,0.059,0.004,0.089,0.004
			s0.059-0.004,0.089-0.004h12.41v58.749H58.114z M58.114,335.116v-58.749h23.594v58.749H58.114z"/>
	</g>
</g>
<g>
</g>
<g>
</g>
<g>
</g>
<g>
</g>
<g>
</g>
<g>
</g>
<g>
</g>
<g>
</g>
<g>
</g>
<g>
</g>
<g>
</g>
<g>
</g>
<g>
</g>
<g>
</g>
<g>
</g>
</svg>
