<?xml version="1.0" encoding="iso-8859-1"?>
<!-- Generator: Adobe Illustrator 19.0.0, SVG Export Plug-In . SVG Version: 6.00 Build 0)  -->
<svg xmlns="http://www.w3.org/2000/svg" xmlns:xlink="http://www.w3.org/1999/xlink" version="1.1" id="Layer_1" x="0px" y="0px" viewBox="0 0 511.995 511.995" style="enable-background:new 0 0 511.995 511.995;" xml:space="preserve" width="512" height="512">
<g id="XMLID_578_">
	<path id="XMLID_579_" d="M493.718,380.757c-4.142,0-7.5,3.357-7.5,7.5v55.566c0,7.589-6.174,13.763-13.763,13.763H57.394   c-7.589,0-13.763-6.174-13.763-13.763V388.19h32.841v6.588c0,16.523,13.443,29.967,29.967,29.967h73.299c4.142,0,7.5-3.357,7.5-7.5   s-3.358-7.5-7.5-7.5H106.44c-8.253,0-14.967-6.714-14.967-14.967v-6.588h9.385c9.998,0,18.131-8.134,18.131-18.132v-49.623   c0-9.997-8.134-18.131-18.131-18.131h-9.385V170.281h9.385c9.998,0,18.131-8.134,18.131-18.131v-49.623   c0-9.998-8.134-18.132-18.131-18.132h-9.385v-6.588c0-8.253,6.714-14.967,14.967-14.967h316.97c8.253,0,14.967,6.714,14.967,14.967   v316.971c0,8.253-6.714,14.967-14.967,14.967H214.261c-4.142,0-7.5,3.357-7.5,7.5s3.358,7.5,7.5,7.5H423.41   c16.524,0,29.967-13.443,29.967-29.967V77.808c0-16.523-13.443-29.967-29.967-29.967H106.44c-16.524,0-29.967,13.443-29.967,29.967   v6.588H43.632V28.763C43.632,21.174,49.805,15,57.394,15h81.344c4.142,0,7.5-3.357,7.5-7.5s-3.358-7.5-7.5-7.5H57.394   c-15.86,0-28.763,12.903-28.763,28.763V84.41c-9.869,0.15-17.854,8.213-17.854,18.118v49.623c0,9.904,7.985,17.967,17.854,18.117   v132.052c-9.869,0.15-17.854,8.213-17.854,18.117v49.623c0,9.905,7.985,17.968,17.854,18.118v55.647   c0,15.859,12.903,28.763,28.763,28.763h19.545v7.457c0,17.618,14.333,31.952,31.952,31.952s31.952-14.334,31.952-31.952v-7.457   h248.163v7.457c0,17.618,14.333,31.952,31.952,31.952s31.952-14.334,31.952-31.952v-7.457h19.545   c15.86,0,28.763-12.903,28.763-28.763v-55.566C501.218,384.114,497.86,380.757,493.718,380.757z M76.472,302.305H43.632V170.281   h32.841V302.305z M25.777,152.15v-49.623c0-1.727,1.405-3.132,3.131-3.132h71.949c1.727,0,3.131,1.405,3.131,3.132v49.623   c0,1.727-1.405,3.131-3.131,3.131H28.908C27.182,155.281,25.777,153.877,25.777,152.15z M25.777,370.059v-49.623   c0-1.727,1.405-3.131,3.131-3.131h71.949c1.727,0,3.131,1.404,3.131,3.131v49.623c0,1.727-1.405,3.132-3.131,3.132H28.908   C27.182,373.19,25.777,371.785,25.777,370.059z M125.844,480.043c0,9.348-7.604,16.952-16.952,16.952s-16.952-7.604-16.952-16.952   v-7.457h33.904V480.043z M437.91,480.043c0,9.348-7.604,16.952-16.952,16.952s-16.952-7.604-16.952-16.952v-7.457h33.904V480.043z"/>
	<path id="XMLID_586_" d="M472.455,0H173.261c-4.142,0-7.5,3.357-7.5,7.5s3.358,7.5,7.5,7.5h299.194   c7.589,0,13.763,6.174,13.763,13.763v324.971c0,4.143,3.358,7.5,7.5,7.5s7.5-3.357,7.5-7.5V28.763   C501.218,12.903,488.315,0,472.455,0z"/>
	<path id="XMLID_587_" d="M399.766,179.712c-2.75-2.749-7.105-2.916-10.051-0.502c-13.106-10.723-29.368-16.556-46.529-16.556   c-19.67,0-38.162,7.66-52.07,21.568c-13.909,13.908-21.569,32.4-21.569,52.07c0,17.161,5.833,33.423,16.557,46.529   c-2.416,2.947-2.25,7.301,0.501,10.053c1.464,1.464,3.384,2.196,5.303,2.196c1.686,0,3.371-0.566,4.749-1.695   c13.106,10.723,29.368,16.557,46.529,16.557c19.67,0,38.162-7.66,52.07-21.568c13.909-13.909,21.569-32.401,21.569-52.071   c0-17.161-5.833-33.423-16.557-46.529C402.683,186.816,402.516,182.463,399.766,179.712z M301.722,194.829   c11.075-11.076,25.801-17.176,41.464-17.176c13.133,0,25.598,4.303,35.814,12.218l-11.584,11.584   c-16.532-11.508-39.482-9.915-54.222,4.805c-0.007,0.007-0.014,0.012-0.021,0.019c-0.006,0.006-0.012,0.013-0.018,0.02   c-14.721,14.738-16.315,37.69-4.807,54.223l-11.584,11.584c-7.915-10.216-12.218-22.681-12.218-35.815   C284.547,220.629,290.647,205.904,301.722,194.829z M319.22,222.933l13.359,13.359l-13.359,13.359   C314.611,241.375,314.612,231.209,319.22,222.933z M329.827,212.326c4.138-2.304,8.747-3.465,13.359-3.465   c4.612,0,9.221,1.16,13.359,3.464l-13.359,13.359L329.827,212.326z M343.186,246.899l13.359,13.359   c-8.276,4.609-18.443,4.608-26.718,0L343.186,246.899z M367.152,249.651l-13.359-13.359l13.359-13.359   C371.761,231.209,371.761,241.375,367.152,249.651z M384.65,277.756c-11.075,11.076-25.801,17.176-41.464,17.176   c-13.133,0-25.598-4.303-35.814-12.218l11.584-11.584c7.254,5.05,15.739,7.587,24.23,7.587c10.86,0,21.72-4.13,29.991-12.392   c0.007-0.007,0.014-0.012,0.021-0.019c0.006-0.006,0.012-0.013,0.018-0.02c14.721-14.738,16.316-37.69,4.807-54.223l11.584-11.584   c7.915,10.216,12.218,22.68,12.218,35.814C401.825,251.955,395.726,266.681,384.65,277.756z"/>
	<path id="XMLID_595_" d="M251.833,288.952v-102.32c0-9.649-7.851-17.5-17.5-17.5H208c-9.649,0-17.5,7.851-17.5,17.5v102.32   c0,9.649,7.851,17.5,17.5,17.5h26.333C243.983,306.452,251.833,298.602,251.833,288.952z M205.5,288.952v-102.32   c0-1.379,1.122-2.5,2.5-2.5h26.333c1.378,0,2.5,1.121,2.5,2.5v102.32c0,1.379-1.122,2.5-2.5,2.5H208   C206.621,291.452,205.5,290.331,205.5,288.952z"/>
</g>















</svg>
