<?xml version="1.0" encoding="iso-8859-1"?>
<!-- Generator: Adobe Illustrator 21.0.0, SVG Export Plug-In . SVG Version: 6.00 Build 0)  -->
<svg xmlns="http://www.w3.org/2000/svg" xmlns:xlink="http://www.w3.org/1999/xlink" version="1.1" id="Capa_1" x="0px" y="0px" viewBox="0 0 512 512" style="enable-background:new 0 0 512 512;" xml:space="preserve" width="512" height="512">
<g>
	<path d="M511.815,194.428c0-64.352-68.032-146.459-204.943-157.703c-20.726-1.72-41.095-2.099-60.251-2.207   c-62.604-0.348-127.321,4.14-176.673,39.096c-3.38,2.394-4.18,7.076-1.786,10.456c2.395,3.382,7.077,4.18,10.456,1.785   C95.783,73.696,115.19,65.5,135.905,60.021c-2.816,16.77-9.818,33.847-20.207,49.017c-17.039,24.881-41.127,45.005-64.422,64.467   c-12.355,10.324-23.937,19.968-34.517,30.295c1.993-36.401,15.731-71.72,38.919-97.565c2.766-3.083,2.509-7.826-0.574-10.591   c-3.083-2.767-7.826-2.511-10.591,0.573c-20.317,22.645-34.027,51.87-39.842,82.989c-0.062,0.191-0.118,0.386-0.166,0.585   c-1.987,8.302-3,18.068-3.096,29.852c-0.02,2.257-0.164,7.851-0.346,14.934c-0.913,35.556-1.69,70.927-0.323,78.783   c9.75,55.979,45.232,108.421,97.35,143.882c21.261,14.464,45.361,24.558,67.86,28.422c24.821,4.261,49.884,1.392,70.953-11.644   c16.341-10.109,28.21-24.952,39.688-39.305c8.601-10.755,16.725-20.914,26.517-29.128c3.173-2.662,3.588-7.393,0.926-10.567   c-2.662-3.174-7.394-3.59-10.565-0.926c-10.936,9.172-19.911,20.397-28.591,31.251c-11.175,13.973-21.729,27.171-35.866,35.918   c-16.799,10.394-37.161,13.629-60.522,9.616c-20.431-3.509-42.437-12.758-61.962-26.04c-48.78-33.189-81.951-82.05-91.009-134.051   c-0.414-2.381-0.547-9.462-0.521-18.59c3.635,9.223,7.972,18.259,12.981,27.051c17.087,30.076,41.783,56.993,72.227,77.969   c21.004,14.472,44.82,24.573,67.061,28.441c24.432,4.247,49.262,1.445,70.183-11.664c31.053-19.455,45.733-56.473,73.63-74.623   c33.09-21.535,85.744-14.207,124.434-28.766c23.864-8.981,45.586-28.641,59.595-53.941c0.639-1.153,1.258-2.313,1.857-3.479   c-0.082,15.471-0.352,24.422-0.81,26.719c-7.724,34.528-33.388,65.332-63.862,76.652c-16.675,6.198-35.523,8.19-53.751,10.118   c-18.5,1.956-37.63,3.98-55.207,10.34c-3.896,1.41-5.91,5.71-4.501,9.605c1.104,3.053,3.984,4.95,7.054,4.95   c0.847,0,1.709-0.145,2.551-0.449c15.864-5.742,33.262-7.581,51.681-9.529c19.151-2.025,38.955-4.119,57.397-10.974   c35.041-13.015,64.489-48.155,73.274-87.425C512.645,264.971,511.815,206.442,511.815,194.428z M481.844,144.095   c-3.455-0.085-6.85-0.063-10.198-0.042c-20.558,0.135-23.755,0.007-26.087-5.243c-3.202-7.206-0.846-20.853,3.733-32.835   c1.378,1.21,2.734,2.434,4.065,3.67C465.245,120.689,474.834,132.315,481.844,144.095z M270.638,49.865   c-4.968,4.579-9.677,9.409-14.091,14.46c-23.021,26.341-56.209,53.941-68.551,59.311c-2.986-6.201-7.999-26.097-12.54-70.936   C205.302,49.165,240.491,49.085,270.638,49.865z M60.892,185.018c24.077-20.114,48.973-40.913,67.182-67.503   c12.845-18.757,21.075-40.238,23.483-61.085c2.944-0.58,5.959-1.125,9.032-1.631c7.44,73.37,15.63,79.651,19.196,82.388   c2.388,1.833,5.245,2.582,8.049,2.109c16.551-2.796,58.44-40.424,80.007-65.1c7.472-8.549,15.864-16.416,24.975-23.415   c15.986,0.925,31.952,2.541,47.546,5.251c-32.166,12.633-54.737,41.239-69.364,62.543c-4.506,6.562-8.907,13.344-13.163,19.903   c-14.135,21.786-27.487,42.365-46.046,58.445c-12.458,10.795-26.646,19.004-41.668,27.696   c-9.637,5.576-19.603,11.343-29.019,17.836c-32.91,22.694-59.573,55.521-76.01,93.318c-11.466-13.275-21.054-27.492-28.608-42.353   c-0.005-0.01-0.01-0.019-0.015-0.029c-0.01-0.019-0.02-0.039-0.029-0.058c-10.678-21.085-17.732-44.324-19.473-68.139   C30.201,210.496,45.448,197.922,60.892,185.018z M229.485,391.284c-16.555,10.372-36.623,13.602-59.648,9.596   c-20.155-3.505-41.861-12.744-61.122-26.014c-11.77-8.11-22.62-17.156-32.426-26.956c15.035-37.836,40.94-70.77,73.329-93.104   c8.928-6.157,18.632-11.771,28.017-17.202c14.967-8.66,30.443-17.615,43.978-29.342c20.164-17.471,34.725-39.913,48.807-61.617   c4.204-6.478,8.55-13.176,12.945-19.578c23.522-34.258,46.151-53.304,71.216-59.939c4.986-1.317,10.472-2.589,15.986-4.217   c15.326,4.42,26.793,9.166,37.429,14.727c-4.195,8.728-10.037,17.487-17.131,25.644c-16.861,19.389-38.303,34.681-57.183,53.585   c-25.647,25.68-45.618,58.031-57.751,93.559c-11.758,34.427-15.898,71.069-12.023,106.183   C253.233,370.122,243.021,382.803,229.485,391.284z M359.817,298.673c-12.729,1.671-25.401,4.014-37.421,8.447   c5.823-31.94,18.978-62.003,38.443-87.627c5.212-6.859,10.36-10.343,13.756-9.335c2.549,0.76,4.605,4.486,4.682,8.481   C379.496,230.065,365.678,248.865,359.817,298.673z M481.985,239.398c-12.31,22.231-31.174,39.424-51.756,47.169   c-3.885,1.462-7.891,2.69-11.981,3.738c2.323-16.069,7.834-31.662,16.169-45.594c2.126-3.555,0.969-8.161-2.586-10.288   c-3.553-2.125-8.159-0.969-10.287,2.586c-10.267,17.163-16.717,36.57-18.805,56.465c-8.443,1.366-17.022,2.286-25.536,3.197   c-0.683,0.073-1.366,0.146-2.05,0.22c6.079-46.283,19.417-62.981,19.121-78.54c-0.205-10.647-6.536-19.928-15.396-22.569   c-7.015-2.089-17.914-1.248-29.983,14.637c-23.006,30.285-37.798,66.324-42.908,104.457c-10.971,6.521-19.951,15.14-28.317,24.786   c-1.122-28.176,3.104-57.014,12.454-84.388c11.397-33.373,30.129-63.736,54.169-87.806c18.388-18.411,40.206-34.008,57.888-54.341   c7.704-8.859,14.127-18.42,18.866-28.034c5.495,3.406,10.89,7.096,16.09,11.009c-5.851,13.454-11.665,34.447-5.286,48.801   c7.052,15.868,22.205,14.27,39.895,14.152c6.094-0.044,11.915-0.079,17.769,0.507c2.377,5.965,4.169,12.081,5.119,18.61   c-19.512,6.666-37.456,17.741-52.209,32.273c-2.951,2.907-2.987,7.656-0.081,10.607c2.907,2.95,7.654,2.986,10.606,0.081   c12.108-11.927,26.625-21.24,42.42-27.277C494.679,208.927,490.122,224.701,481.985,239.398z"/>
</g>















</svg>
