<svg xmlns="http://www.w3.org/2000/svg" width="15" height="8.094" viewBox="0 0 15 8.094">
  <metadata><?xpacket begin="﻿" id="W5M0MpCehiHzreSzNTczkc9d"?>
<x:xmpmeta xmlns:x="adobe:ns:meta/" x:xmptk="Adobe XMP Core 5.6-c138 79.159824, 2016/09/14-01:09:01        ">
   <rdf:RDF xmlns:rdf="http://www.w3.org/1999/02/22-rdf-syntax-ns#">
      <rdf:Description rdf:about=""/>
   </rdf:RDF>
</x:xmpmeta>
                                                                                                    
                                                                                                    
                                                                                                    
                                                                                                    
                                                                                                    
                                                                                                    
                                                                                                    
                                                                                                    
                                                                                                    
                                                                                                    
                                                                                                    
                                                                                                    
                                                                                                    
                                                                                                    
                                                                                                    
                                                                                                    
                                                                                                    
                                                                                                    
                                                                                                    
                                                                                                    
                           
<?xpacket end="w"?></metadata>
<defs>
    <style>
      .cls-1 {
        fill: #042642;
        fill-rule: evenodd;
      }
    </style>
  </defs>
  <path id="Фигура_34" data-name="Фигура 34" class="cls-1" d="M1415.88,63.146a6.349,6.349,0,0,0-1.49-1.616c-1.26-1.093-1.09-.915.43-2.806,0.92-1.151,1.29-1.855,1.18-2.156a0.924,0.924,0,0,0-.79-0.211l-2.26.013a0.535,0.535,0,0,0-.29.048,0.624,0.624,0,0,0-.2.227,11.83,11.83,0,0,1-.84,1.649c-1,1.6-1.4,1.684-1.57,1.584a1.726,1.726,0,0,1-.28-1.426c0-1.549.25-2.2-.49-2.362a4.1,4.1,0,0,0-1.06-.1,5.151,5.151,0,0,0-1.87.179c-0.26.117-.46,0.38-0.34,0.395a1.05,1.05,0,0,1,.67.315,1.925,1.925,0,0,1,.22.956s0.14,1.824-.31,2.051c-0.3.155-.72-0.162-1.62-1.613a14.293,14.293,0,0,1-.8-1.565,0.643,0.643,0,0,0-.19-0.234,0.928,0.928,0,0,0-.34-0.132l-2.15.013a0.768,0.768,0,0,0-.44.14,0.4,0.4,0,0,0-.01.358,22.628,22.628,0,0,0,3.58,5.535,5.362,5.362,0,0,0,3.73,1.59h0.9a0.8,0.8,0,0,0,.41-0.168,0.629,0.629,0,0,0,.12-0.37s-0.02-1.128.54-1.294,1.26,1.09,2.01,1.573a1.5,1.5,0,0,0,1,.285l2-.026S1416.38,63.918,1415.88,63.146Z" transform="translate(-1401 -56)"/>
</svg>
