<svg xmlns="http://www.w3.org/2000/svg" width="15" height="10" viewBox="0 0 15 10">
  <metadata><?xpacket begin="﻿" id="W5M0MpCehiHzreSzNTczkc9d"?>
<x:xmpmeta xmlns:x="adobe:ns:meta/" x:xmptk="Adobe XMP Core 5.6-c138 79.159824, 2016/09/14-01:09:01        ">
   <rdf:RDF xmlns:rdf="http://www.w3.org/1999/02/22-rdf-syntax-ns#">
      <rdf:Description rdf:about=""/>
   </rdf:RDF>
</x:xmpmeta>
                                                                                                    
                                                                                                    
                                                                                                    
                                                                                                    
                                                                                                    
                                                                                                    
                                                                                                    
                                                                                                    
                                                                                                    
                                                                                                    
                                                                                                    
                                                                                                    
                                                                                                    
                                                                                                    
                                                                                                    
                                                                                                    
                                                                                                    
                                                                                                    
                                                                                                    
                                                                                                    
                           
<?xpacket end="w"?></metadata>
<defs>
    <style>
      .cls-1 {
        fill: #042642;
        fill-rule: evenodd;
      }
    </style>
  </defs>
  <path id="Фигура_35" data-name="Фигура 35" class="cls-1" d="M1456.37,55.959a1.739,1.739,0,0,0-1.75-.88c-0.9-.059-3.15-0.083-5.11-0.083s-4.22.025-5.12,0.083a1.755,1.755,0,0,0-1.75.881,8.484,8.484,0,0,0-.63,4.034V60h0a8.453,8.453,0,0,0,.63,4.027,1.778,1.778,0,0,0,1.75.888c0.9,0.051,3.16.081,5.12,0.081s4.21-.03,5.11-0.081a1.759,1.759,0,0,0,1.75-.887c0.42-.694.63-1.911,0.63-4.027V59.994C1457,57.868,1456.79,56.66,1456.37,55.959Zm-8.74,6.764V57.268L1452.32,60Z" transform="translate(-1442 -55)"/>
</svg>
