<?xml version="1.0" encoding="utf-8"?>
<!-- Generator: Adobe Illustrator 21.0.0, SVG Export Plug-In . SVG Version: 6.00 Build 0)  -->
<svg version="1.1" id="Слой_1" xmlns="http://www.w3.org/2000/svg" xmlns:xlink="http://www.w3.org/1999/xlink" x="0px" y="0px"
	 viewBox="0 0 30 30" style="enable-background:new 0 0 30 30;" xml:space="preserve">
<path id="Фигура_35" d="M28.2,7.2c-0.7-1.2-2-1.9-3.4-1.7c-1.7-0.1-6-0.2-9.8-0.2s-8.1,0-9.8,0.2C3.9,5.3,2.5,6,1.9,7.2
	c-1,2.4-1.4,5.1-1.2,7.7v0l0,0c-0.2,2.6,0.2,5.3,1.2,7.7c0.7,1.2,2,1.9,3.4,1.7c1.7,0.1,6,0.2,9.8,0.2s8.1-0.1,9.8-0.2
	c1.4,0.2,2.7-0.5,3.4-1.7c0.8-1.3,1.2-3.7,1.2-7.7v0C29.4,10.8,29,8.5,28.2,7.2z M11.4,20.1V9.7l9,5.2L11.4,20.1z"/>
</svg>
