<svg xmlns="http://www.w3.org/2000/svg" width="13.5" height="12.031" viewBox="0 0 13.5 12.031">
  <metadata><?xpacket begin="﻿" id="W5M0MpCehiHzreSzNTczkc9d"?>
<x:xmpmeta xmlns:x="adobe:ns:meta/" x:xmptk="Adobe XMP Core 5.6-c138 79.159824, 2016/09/14-01:09:01        ">
   <rdf:RDF xmlns:rdf="http://www.w3.org/1999/02/22-rdf-syntax-ns#">
      <rdf:Description rdf:about=""/>
   </rdf:RDF>
</x:xmpmeta>
                                                                                                    
                                                                                                    
                                                                                                    
                                                                                                    
                                                                                                    
                                                                                                    
                                                                                                    
                                                                                                    
                                                                                                    
                                                                                                    
                                                                                                    
                                                                                                    
                                                                                                    
                                                                                                    
                                                                                                    
                                                                                                    
                                                                                                    
                                                                                                    
                                                                                                    
                                                                                                    
                           
<?xpacket end="w"?></metadata>
<defs>
    <style>
      .cls-1 {
        fill: #042642;
        fill-rule: evenodd;
      }
    </style>
  </defs>
  <path id="Фигура_36" data-name="Фигура 36" class="cls-1" d="M1480.73,59.755l3.12,1.185,1.2,3.953a0.363,0.363,0,0,0,.58.178l1.74-1.443a0.509,0.509,0,0,1,.63-0.018l3.13,2.319a0.361,0.361,0,0,0,.57-0.227l2.29-11.249a0.368,0.368,0,0,0-.49-0.425l-12.77,5.027A0.378,0.378,0,0,0,1480.73,59.755Zm4.13,0.554,6.08-3.823a0.1,0.1,0,0,1,.12.17l-5.01,4.762a1.1,1.1,0,0,0-.33.635l-0.17,1.293a0.152,0.152,0,0,1-.3.023l-0.66-2.358A0.615,0.615,0,0,1,1484.86,60.309Z" transform="translate(-1480.5 -54)"/>
</svg>
