<svg xmlns="http://www.w3.org/2000/svg" width="9" height="16" viewBox="0 0 9 16">
  <metadata><?xpacket begin="﻿" id="W5M0MpCehiHzreSzNTczkc9d"?>
<x:xmpmeta xmlns:x="adobe:ns:meta/" x:xmptk="Adobe XMP Core 5.6-c138 79.159824, 2016/09/14-01:09:01        ">
   <rdf:RDF xmlns:rdf="http://www.w3.org/1999/02/22-rdf-syntax-ns#">
      <rdf:Description rdf:about=""/>
   </rdf:RDF>
</x:xmpmeta>
                                                                                                    
                                                                                                    
                                                                                                    
                                                                                                    
                                                                                                    
                                                                                                    
                                                                                                    
                                                                                                    
                                                                                                    
                                                                                                    
                                                                                                    
                                                                                                    
                                                                                                    
                                                                                                    
                                                                                                    
                                                                                                    
                                                                                                    
                                                                                                    
                                                                                                    
                                                                                                    
                           
<?xpacket end="w"?></metadata>
<defs>
    <style>
      .cls-1 {
        fill: #042642;
        fill-rule: evenodd;
      }
    </style>
  </defs>
  <path id="Фигура_37" data-name="Фигура 37" class="cls-1" d="M1530.66,52l-2.16,0a3.716,3.716,0,0,0-3.99,3.938v1.815h-2.17a0.332,0.332,0,0,0-.34.327v2.63a0.332,0.332,0,0,0,.34.326h2.17v6.638a0.332,0.332,0,0,0,.34.327h2.83a0.332,0.332,0,0,0,.34-0.327V61.036h2.54a0.332,0.332,0,0,0,.34-0.326v-2.63a0.336,0.336,0,0,0-.1-0.231,0.341,0.341,0,0,0-.24-0.1h-2.54V56.214c0-.74.18-1.115,1.19-1.115h1.45a0.332,0.332,0,0,0,.34-0.327V52.329A0.333,0.333,0,0,0,1530.66,52Z" transform="translate(-1522 -52)"/>
</svg>
