<svg height="512pt" viewBox="0 -28 512 511" width="512pt" xmlns="http://www.w3.org/2000/svg"><path d="m512 89.027344c0-27.375-12.492188-51.886719-32.070312-68.136719-.371094-.375-.789063-.714844-1.246094-1.011719-15.148438-12.121094-34.347656-19.378906-55.210938-19.378906-22.367187 0-43.308594 8.183594-59.636718 23.128906-.324219-.042968-.652344-.074218-.988282-.074218h-138.28125c-4.15625 0-7.527344 3.371093-7.527344 7.53125 0 4.15625 3.371094 7.527343 7.527344 7.527343h130.753906v36.464844h-202.671874v-36.460937h39.792968c4.160156 0 7.53125-3.371094 7.53125-7.53125 0-4.160157-3.371094-7.53125-7.53125-7.53125h-44.355468c-16.335938-14.878907-37.355469-23.054688-59.558594-23.054688-20.863282 0-40.0625 7.261719-55.210938 19.382812-.457031.296876-.875.632813-1.242187 1.007813-19.582031 16.25-32.074219 40.761719-32.074219 68.136719 0 14.445312 3.523438 28.640625 10.226562 41.328125-6.703124 12.6875-10.226562 26.882812-10.226562 41.328125 0 27.375 12.492188 51.886718 32.070312 68.140625.371094.375.789063.710937 1.246094 1.007812 15.148438 12.121094 34.347656 19.378907 55.210938 19.378907 24.390625 0 47.0625-9.6875 63.921875-27.289063h22.90625l-17.472657 17.472656c-19.070312.96875-36.855468 8.820313-50.515624 22.480469-12.8125 12.816406-20.148438 29.054688-22.050782 45.800781-.121094.558594-.1875 1.117188-.183594 1.671875-2.019531 22.054688 5.386719 44.820313 22.234376 61.667969 8.773437 8.769531 19.503906 15.285156 31.25 19.003906 3.71875 11.746094 10.234374 22.476563 19.003906 31.246094 15.046875 15.046875 34.808594 22.570313 54.570312 22.570313 2.375 0 4.75-.117188 7.113282-.332032h.027343c.492188 0 .992188-.066406 1.488281-.167968 16.796876-1.875 33.089844-9.21875 45.941407-22.070313 14.914062-14.914063 22.90625-34.695313 22.578125-55.761719l40.054687-40.054687c2.941407-2.941407 2.941407-7.710938 0-10.648438-2.941406-2.941406-7.707031-2.941406-10.648437 0l-39.496094 39.496094-20.675781-20.675781 106.453125-106.453125c7.625 6.699219 16.300781 12 25.628906 15.722656l-51.125 51.125c-2.941406 2.941406-2.941406 7.707031 0 10.648437 1.46875 1.46875 3.394531 2.203126 5.324219 2.203126 1.925781 0 3.851562-.734376 5.324219-2.203126l56.972656-56.972656c5.339844 1.003906 10.800781 1.519532 16.316406 1.519532 20.863281 0 40.0625-7.257813 55.210938-19.378907.457031-.296875.875-.632812 1.246093-1.011719 19.582031-16.25 32.070313-40.761718 32.070313-68.136718 0-14.445313-3.523438-28.640625-10.226563-41.328125 6.707031-12.683594 10.230469-26.882813 10.230469-41.328125zm-423.472656-73.46875c18.261718 0 35.558594 6.65625 49.058594 18.792968v37.148438c-12.152344-.792969-25.25-3.671875-38.296876-8.464844-22.816406-8.386718-41.957031-21.410156-51.773437-34.933594 11.71875-7.914062 25.835937-12.542968 41.011719-12.542968zm-56.617188 26.699218c1.285156-1.554687 2.644532-3.042968 4.054688-4.488281 4.851562 6.441407 11.335937 12.765625 19.140625 18.617188 11.039062 8.28125 24.523437 15.46875 38.988281 20.78125 14.730469 5.414062 29.609375 8.621093 43.492188 9.417969v22.007812c-19.144532 3.984375-41.144532-1.707031-56.574219-7.375-34.484375-12.671875-50.550781-31.96875-49.101563-58.960938zm-12.742187 153.605469c-2.652344-7.578125-4.109375-15.707031-4.109375-24.179687 0-13.214844 3.550781-26.175782 10.273437-37.480469 1.40625-2.371094 1.40625-5.324219 0-7.695313-6.722656-11.300781-10.273437-24.261718-10.273437-37.480468 0-8.703125 1.53125-17.050782 4.320312-24.804688 8.128906 27.503906 33.777344 42.804688 56.441406 51.128906 13.109376 4.816407 30.578126 9.617188 48.125 9.617188 4.566407 0 9.140626-.332031 13.640626-1.070312v10.625c-17.03125-2.882813-37.179688-.117188-60.089844 8.296874-19.703125 7.242188-34.90625 16.976563-45.183594 28.9375-6.292969 7.324219-10.671875 15.382813-13.144531 24.105469zm16.796875 27.078125c-1.371094-1.40625-2.691406-2.855468-3.949219-4.367187 0-.203125 0-.402344-.015625-.605469-2.117188-27.347656 14.9375-47.875 50.691406-61.011719 21.320313-7.832031 40.140625-10.238281 54.898438-7.097656v24.273437c-13.871094.804688-28.765625 4-43.492188 9.410157-14.46875 5.316406-27.949218 12.503906-38.992187 20.785156-7.804688 5.851563-14.285157 12.175781-19.140625 18.613281zm52.5625 22.210938c-15.175782 0-29.292969-4.625-41.011719-12.539063 9.816406-13.523437 28.957031-26.550781 51.773437-34.933593 13.050782-4.792969 26.136719-7.671876 38.296876-8.46875v36.183593c0 .304688.027343.605469.0625.902344-13.496094 12.191406-30.714844 18.855469-49.121094 18.855469zm108.125-12.230469h41.351562l-45.5625 45.5625-20.675781-20.675781zm-78.632813 50.601563c10.859375-10.863282 24.9375-17.167969 40.097657-18.066407l21.441406 21.441407c-7.648438 6.523437-17.085938 12.503906-27.324219 17.242187-18.304687 8.46875-37.117187 12.175781-50.996094 10.304687 2.40625-11.339843 7.988281-22.132812 16.78125-30.921874zm-17.910156 49.46875c-.105469-1.175782-.167969-2.355469-.207031-3.535157 2.820312.34375 5.753906.523438 8.796875.523438 15.054687 0 32.597656-4.191407 49.859375-12.175781 12.03125-5.566407 22.824218-12.472657 31.679687-20.222657l12.058594 12.054688c-7.339844 10.769531-20.355469 20.6875-37.957031 28.828125-28.039063 12.972656-49.070313 11.179687-64.230469-5.472656zm76.898437 79.007812c.546876 7.25 2.316407 13.960938 5.257813 20.113281-5.019531-2.757812-9.742187-6.246093-13.992187-10.496093-7.902344-7.902344-13.527344-17.769532-16.265626-28.546876-.679687-2.671874-2.769531-4.761718-5.441406-5.441406-10.773437-2.738281-20.648437-8.363281-28.546875-16.265625-4.402343-4.398437-7.992187-9.308593-10.796875-14.527343 7.785156 3.632812 15.914063 5.113281 23.988282 5.113281 14.011718 0 27.863281-4.457031 39.449218-9.816407 13.578125-6.28125 31.175782-16.644531 42.433594-31.699218l4.703125 4.703125c-11.835937 8.761719-22.171875 22.59375-30.816406 41.273437-7.652344 16.546875-11.007813 31.886719-9.972657 45.589844zm33.191407 27.734375c-1.136719-.035156-2.273438-.097656-3.40625-.199219-.046875-.042968-.089844-.089844-.140625-.132812-17.511719-14.996094-19.53125-37.425782-6.003906-66.667969 7.9375-17.152344 17.527343-29.742187 27.957031-36.789063l13.449219 13.449219c-7.753907 8.871094-14.671876 19.683594-20.222657 31.683594-9.601562 20.753906-13.691406 41.898437-11.632812 58.65625zm63.730469-58.464844c.078124.078125.167968.148438.25.226563-.894532 15.15625-7.191407 29.246094-18.066407 40.121094-8.789062 8.789062-19.582031 14.371093-30.921875 16.78125-1.871094-13.878907 1.835938-32.691407 10.308594-51 4.796875-10.367188 10.683594-19.683594 17.230469-27.328126zm81.390624-163.40625h-32.804687c-4.160156 0-7.53125 3.371094-7.53125 7.53125 0 4.15625 3.371094 7.527344 7.53125 7.527344h26.464844l-101.050781 101.050781-12.660157-12.660156c-.054687-.054688-.109375-.109375-.164062-.164062l-32.015625-32.015626 56.210937-56.210937h31.089844c4.15625 0 7.527344-3.371094 7.527344-7.527344 0-4.160156-3.371094-7.53125-7.527344-7.53125h-96.855469s0 0-.003906 0h-40.882812v-36.460937h202.671874zm0-51.519531h-202.671874v-22.136719c0-.027343 0-.050781 0-.078125v-53.992187h202.671874zm15.058594-128.09375c13.996094-14.632812 32.851563-22.691406 53.09375-22.691406 15.175782 0 29.292969 4.628906 41.015625 12.542968-9.820312 13.527344-28.960937 26.550782-51.777343 34.933594-14.335938 5.265625-29.152344 8.277344-42.332032 8.65625zm0 48.507812c15-.351562 31.304688-3.628906 47.523438-9.589843 25.367187-9.320313 46.351562-23.652344 58.144531-39.382813 1.40625 1.4375 2.761719 2.921875 4.042969 4.472656 1.453125 26.988282-14.617188 46.289063-49.101563 58.960938-29.53125 10.847656-48.933593 9.757812-60.609375 6.375zm53.09375 158.394532c-20.074218 0-39.257812-8.257813-53.09375-22.71875v-33.402344c13.175782.371094 27.933594 3.359375 42.332032 8.648438 22.816406 8.382812 41.957031 21.40625 51.773437 34.929687-11.71875 7.917969-25.835937 12.542969-41.011719 12.542969zm56.527344-27.183594c-.015625.203125-.015625.402344-.015625.605469-1.25 1.507812-2.570313 2.953125-3.9375 4.355469-11.796875-15.734376-32.777344-30.066407-58.140625-39.386719-16.03125-5.890625-32.601562-9.199219-47.527344-9.574219v-23.09375c15.308594-4.570312 35.589844-2.492188 58.929688 6.082031 35.753906 13.136719 52.808594 33.664063 50.691406 61.011719zm6.667969-83.765625c6.722656 11.304687 10.273437 24.265625 10.273437 37.480469 0 8.472656-1.457031 16.601562-4.109375 24.179687-2.472656-8.722656-6.851562-16.785156-13.144531-24.105469-10.277344-11.960937-25.480469-21.695312-45.183594-28.9375-24.773437-9.101562-46.289062-11.605468-64.125-7.507812v-12.195312c5.796875 1.289062 11.75 1.859374 17.703125 1.859374 17.375 0 34.734375-4.714843 48.101563-9.625 22.664062-8.324218 48.308594-23.625 56.4375-51.128906 2.789062 7.753906 4.320312 16.101563 4.320312 24.804688 0 13.21875-3.550781 26.179687-10.273437 37.480468-1.40625 2.371094-1.40625 5.324219 0 7.695313zm0 0"/></svg>