<?xml version="1.0" encoding="utf-8"?>
<!-- Generator: Adobe Illustrator 21.0.0, SVG Export Plug-In . SVG Version: 6.00 Build 0)  -->
<svg version="1.1"
	 id="Слой_1" xmlns:cc="http://creativecommons.org/ns#" xmlns:dc="http://purl.org/dc/elements/1.1/" xmlns:rdf="http://www.w3.org/1999/02/22-rdf-syntax-ns#"
	 xmlns="http://www.w3.org/2000/svg" xmlns:xlink="http://www.w3.org/1999/xlink" x="0px" y="0px" viewBox="0 0 64 64"
	 style="enable-background:new 0 0 64 64;" xml:space="preserve">
<g transform="translate(0.00630876,-0.00301984)">
	<path d="M46.1,27.4c0.6-4.3-2.6-6.5-7-8.1l1.4-5.8L37,12.7l-1.4,5.6c-0.9-0.2-1.9-0.4-2.8-0.7l1.4-5.7l-3.5-0.9l-1.4,5.8
		c-0.8-0.2-1.5-0.3-2.2-0.5l0,0l-4.8-1.2l-0.9,3.8c0,0,2.6,0.6,2.5,0.6c1.4,0.4,1.7,1.3,1.6,2l-1.6,6.6c0.1,0,0.2,0.1,0.4,0.1
		c-0.1,0-0.2-0.1-0.4-0.1l-2.3,9.2c-0.2,0.4-0.6,1.1-1.6,0.8c0,0.1-2.6-0.6-2.6-0.6l-1.7,4l4.6,1.1c0.9,0.2,1.7,0.4,2.5,0.6
		l-1.5,5.8l3.5,0.9l1.4-5.8c1,0.3,1.9,0.5,2.8,0.7l-1.4,5.7l3.5,0.9l1.5-5.8c6,1.1,10.5,0.7,12.4-4.7c1.5-4.4-0.1-6.9-3.2-8.5
		C43.9,32.1,45.6,30.6,46.1,27.4z M38.1,38.7c-1.1,4.4-8.4,2-10.8,1.4l1.9-7.7C31.6,33,39.2,34.1,38.1,38.7z M39.2,27.4
		c-1,4-7.1,2-9.1,1.5l1.7-7C33.8,22.3,40.2,23.2,39.2,27.4z"/>
</g>
</svg>
